<?xml version="1.0" encoding="utf-8"?>
<!-- Generator: Adobe Illustrator 16.0.0, SVG Export Plug-In . SVG Version: 6.00 Build 0)  -->
<!DOCTYPE svg PUBLIC "-//W3C//DTD SVG 1.1//EN" "http://www.w3.org/Graphics/SVG/1.1/DTD/svg11.dtd">
<svg version="1.1" id="_x2018_лой_x5F_1" xmlns="http://www.w3.org/2000/svg" xmlns:xlink="http://www.w3.org/1999/xlink"
	 x="0px" y="0px" width="3000px" height="2000px" viewBox="0 0 3000 2000" enable-background="new 0 0 3000 2000"
	 xml:space="preserve">
<rect fill="#FFFFFF" width="3000" height="2000"/>
<g>
	<path fill="#EBF3FA" d="M533.486,1859.298c0,0-284.067-275.716-103.345-600.104c180.721-324.389,423.445-161.255,411.699-538.813
		c-11.747-377.559,558.216-409.997,739.639-300.52c181.422,109.477,180.332,241.328,554.859,197.703
		c374.528-43.625,446.076,320.035,348.639,505.375c-138.246,262.966,383.693,219.594,54.814,736.36H533.486z"/>
	<g>
		<path opacity="0.3" fill="#AEC3FF" d="M1780.939,1210.512c0,0,60.358-255.827,263.98-283.955c0,0,39.617-4.866,52.811,38.759
			c13.191,43.624-65.578,43.938-114.269,61.486C1934.772,1044.35,1821.26,1118.738,1780.939,1210.512z"/>
		<path opacity="0.3" fill="#AEC3FF" d="M1776.313,1162.635c0,0-21.17-211.907,127.425-287.114c0,0,29.07-14.167,50.673,15.779
			s-38.664,50.944-71.344,77.218C1850.387,994.793,1783.021,1081.698,1776.313,1162.635z"/>
	</g>
	<path fill="#2E3552" d="M2677.873,1861.986H342.647c-1.484,0-2.699-1.215-2.699-2.699v-1.03c0-1.483,1.214-2.698,2.699-2.698
		h2335.226c1.485,0,2.699,1.215,2.699,2.698v1.03C2680.572,1860.771,2679.358,1861.986,2677.873,1861.986z"/>
	<path fill="#CDE0FB" d="M677.683,1666.893c-31.437-71.631,82.593-133.18,82.593-133.18s150.264,48.636,171.838,35.298
		c21.575-13.337-120.352-66.667-120.352-66.667c35.018-34.264,169.293-65.664,169.293-65.664s90.573,124.991,108.201,106.753
		s-85.845-106.581-85.845-106.581c45.632-18.575,114.469-3.326,114.469-3.326c99.12,35.292,48.683,160.749,48.683,160.749
		s32.324,42.64,96.532,69.694c0,0,0.003,0,0.003,0s12.91,4.146,30.89,14.386l-10.02,8.07c-2.983-2.027-5.977-3.898-8.984-5.587
		c-0.015-0.02-0.032-0.027-0.055-0.03c-0.044-0.024-0.087-0.047-0.131-0.072c-1.933-0.995-4.694-2.403-8.085-4.097
		c-0.004-0.002-0.009-0.005-0.013-0.007c-0.005-0.006-0.012-0.001-0.017-0.008c-7.888-3.527-13.521-6.288-17.404-8.43
		c-0.013-0.006-0.024-0.014-0.034-0.022c-24.323-11.422-57.277-25.289-70.23-23.331c0,0-0.148-2.453-1.558-6.323
		c0.497,2.017,1.015,4.118,1.558,6.323c12.45,50.566-68.37,125.763-124.042,154.444c-55.671,28.681-45.699-1.569-37.589-44.161
		c8.11-42.593,66.657-80.243,75.675-101.646c9.019-21.403-21.165-11.23-51.042,16.874c-29.878,28.105-20.149,72.784-67.655,119.127
		s-164.659-18.862-164.659-18.862c44.407-17.589,92.323-88.5,84.906-102.724c-7.417-14.224-100.761,62.979-118.421,71.144
		C758.527,1747.203,709.12,1738.523,677.683,1666.893z"/>
	<path fill="#CDE0FB" d="M2113.354,1753.016c45.86-54.111-37.304-137.116-37.304-137.116s-143.172,3.37-158.468-13.806
		c-15.297-17.174,121.846-26.782,121.846-26.782c-21.562-38.841-130.123-100.884-130.123-100.884s-111.064,85.174-121.662,64.763
		c-10.598-20.412,102.189-70.4,102.189-70.4c-34.847-27.955-98.615-32.522-98.615-32.522
		c-95.273,5.014-83.917,127.095-83.917,127.095s-39.127,28.688-101.929,35.579h-0.002c0,0-12.293,0.26-30.568,4.505l6.619,9.607
		c3.116-0.99,6.202-1.841,9.253-2.53c0.018-0.013,0.034-0.016,0.056-0.012c0.044-0.01,0.088-0.019,0.133-0.029
		c1.938-0.364,4.701-0.873,8.086-1.468c0.005,0,0.01-0.001,0.014-0.002c0.006-0.003,0.011,0.002,0.017-0.002
		c7.767-1.024,13.378-1.965,17.306-2.821c0.014-0.002,0.025-0.006,0.035-0.011c24.095-3.63,56.322-7.15,67.072-2.096
		c0,0,0.764-2.094,2.989-5.093c-0.952,1.624-1.947,3.317-2.989,5.093c-23.909,40.72,26.861,126.987,67.817,166.323
		s40.119,10.467,44.097-28.646c3.977-39.114-37.156-86.987-39.453-107.922c-2.298-20.935,21.3-4.28,39.989,27.877
		c18.69,32.158-1.329,68.467,27.958,121.036c29.288,52.569,147.976,26.23,147.976,26.23
		c-34.038-26.78-57.322-100.807-47.195-111.248c10.128-10.44,71.261,80.812,84.495,92.479S2067.492,1807.126,2113.354,1753.016z"/>
	<path opacity="0.5" fill="#CDE0FB" d="M972.422,704.822c47.269-79.316,184.588-11.955,184.588-11.955s56.296,177.72,83.902,189.304
		c27.606,11.584-18.462-161.344-18.462-161.344c56.93,10.152,179.161,117.637,179.161,117.637s-57.992,172.72-28.382,177.153
		c29.608,4.432,43.546-155.556,43.546-155.556c49.134,31.107,81.68,107.701,81.68,107.701
		c34.05,119.435-121.071,156.99-121.071,156.99s-18.806,60.291-0.778,140.532l0.001,0.003c0,0,4.869,15.247,7.358,39.542
		l-14.624-4.094c-0.097-4.256-0.352-8.414-0.791-12.462c0.008-0.028,0.004-0.05-0.01-0.074c-0.006-0.059-0.014-0.116-0.021-0.175
		c-0.369-2.541-0.909-6.158-1.606-10.578c-0.001-0.006-0.002-0.011-0.003-0.016c0.003-0.01-0.007-0.013-0.004-0.022
		c-2.019-9.997-3.229-17.302-3.833-22.501c-0.003-0.018-0.003-0.033-0.002-0.048c-5.702-31.201-14.973-72.371-25.735-83.476
		c0,0,2.255-1.822,5.007-5.831c-1.597,1.86-3.262,3.798-5.007,5.831c-40.048,46.633-167.709,20.535-233.437-13.289
		c-65.727-33.823-29.826-44.982,16.658-66.393c46.483-21.41,122.799,9.027,149.546,3.018c26.748-6.008-3.72-28.033-51.209-37.472
		s-83.746,30.544-160.844,16.673c-77.097-13.869-94.771-171.137-94.771-171.137c47.347,30.607,148.331,28.026,156.912,11.147
		c8.581-16.879-129.594-53.631-149.549-65.001C950.688,837.561,925.153,784.139,972.422,704.822z"/>
	<g>
		<g>
			<path fill="#F45E4A" d="M1500.207,849.99c0-5.125,0.913-9.862,2.745-14.212c1.828-4.347,4.416-8.114,7.758-11.299
				c3.342-3.181,7.357-5.668,12.054-7.456c4.691-1.783,9.983-2.679,15.872-2.679c5.886,0,11.22,0.896,15.992,2.679
				c4.774,1.788,8.832,4.274,12.174,7.456c3.342,3.185,5.926,6.953,7.757,11.299c1.828,4.35,2.745,9.086,2.745,14.212
				c0,5.125-0.917,9.825-2.745,14.095c-1.831,4.274-4.415,8.001-7.757,11.183c-3.342,3.186-7.399,5.672-12.174,7.456
				c-4.772,1.783-10.106,2.679-15.992,2.679c-5.889,0-11.181-0.896-15.872-2.679c-4.696-1.784-8.712-4.271-12.054-7.456
				c-3.342-3.182-5.93-6.909-7.758-11.183C1501.119,859.815,1500.207,855.115,1500.207,849.99z M1567.277,783.694h-57.285
				l-8.115-195.735h73.516L1567.277,783.694z"/>
		</g>
	</g>
	<g>
		<g>
			<path fill="#AEC3FF" d="M1327.239,658.647c0-3.934,0.701-7.569,2.107-10.908c1.403-3.336,3.389-6.227,5.954-8.672
				c2.565-2.441,5.647-4.35,9.251-5.722c3.602-1.368,7.663-2.056,12.183-2.056c4.517,0,8.61,0.688,12.273,2.056
				c3.664,1.373,6.779,3.281,9.343,5.722c2.565,2.445,4.548,5.336,5.953,8.672c1.403,3.339,2.107,6.974,2.107,10.908
				s-0.704,7.541-2.107,10.818c-1.405,3.28-3.388,6.141-5.953,8.583c-2.564,2.445-5.679,4.353-9.343,5.723
				c-3.664,1.368-7.757,2.056-12.273,2.056c-4.52,0-8.581-0.688-12.183-2.056c-3.604-1.37-6.686-3.278-9.251-5.723
				c-2.564-2.441-4.551-5.302-5.954-8.583C1327.94,666.188,1327.239,662.581,1327.239,658.647z M1378.716,607.766h-43.966
				l-6.229-150.225h56.423L1378.716,607.766z"/>
		</g>
	</g>
	<g>
		<g>
			<path fill="#AEC3FF" d="M2181.327,912.477c0-3.934,0.701-7.569,2.106-10.907c1.403-3.336,3.389-6.228,5.955-8.672
				c2.563-2.442,5.646-4.35,9.25-5.722c3.601-1.369,7.663-2.056,12.183-2.056c4.517,0,8.61,0.688,12.273,2.056
				c3.665,1.372,6.778,3.28,9.343,5.722c2.564,2.445,4.549,5.336,5.953,8.672c1.403,3.338,2.107,6.974,2.107,10.907
				s-0.704,7.541-2.107,10.818c-1.404,3.28-3.389,6.141-5.953,8.583c-2.564,2.444-5.678,4.353-9.343,5.722
				c-3.663,1.369-7.757,2.057-12.273,2.057c-4.52,0-8.582-0.688-12.183-2.057c-3.604-1.369-6.687-3.278-9.25-5.722
				c-2.566-2.442-4.552-5.302-5.955-8.583C2182.028,920.018,2181.327,916.41,2181.327,912.477z M2232.804,861.595h-43.966
				l-6.229-150.226h56.424L2232.804,861.595z"/>
		</g>
	</g>
	<g>
		<g>
			<path fill="#AEC3FF" d="M2084.619,1294.776c-9.187,17.044-20.637,34.261-32.369,48.267v0.01
				c-12.287,14.67-24.865,25.82-35.48,29.594l-0.081,0.027c-0.555,0.192-1.1,0.374-1.646,0.52c-0.027,0.019-0.055,0.019-0.082,0.019
				c-0.009,0.009-0.009,0.009-0.009,0.009c-2.155,0.609-4.211,0.882-6.166,0.791c-34.833-1.564-71.55-76.288-71.55-76.288
				s0.955-8.859,7.73-15.116c5.911-5.457,10.459-6.885,10.459-6.885s37.517,38.526,46.685,41.3
				c5.767,1.737,13.342-25.165,24.201-58.953c10.869-33.787,49.022-42.118,49.022-42.118S2113.949,1240.389,2084.619,1294.776z"/>
			<path fill="#94B0ED" d="M2052.25,1343.043v0.01c-12.287,14.67-24.865,25.82-35.48,29.594l-0.081,0.027l-1.646,0.52l-0.091,0.027
				c0,0,0,0,0.009-0.009c0.382-0.255,11.742-6.146,13.524-17.081c1.822-11.174-10.001-20.314,19.709-37.599
				C2065.506,1308.461,2052.25,1343.043,2052.25,1343.043z"/>
			<path fill="#24406D" d="M2025.054,1855.559h81.646c5.85-3.967-1.578-42.752-1.578-42.752s-22.283-8.454-26.133,8.739
				c-3.859,17.183-28.382,22.646-41.359,24.741C2028.748,1847.731,2025.941,1852.61,2025.054,1855.559z"/>
			<path fill="#FF9E55" d="M2149.557,1453.547c0,0-2.573,47.63-5.793,102.818c-2.319,39.572-4.957,83.037-7.221,115.588
				c-0.301,4.32-0.602,8.449-0.884,12.352c-0.081,1.209-0.172,2.41-0.264,3.61c-5.848,72.986-25.394,136.934-25.394,136.934
				c-22.955,4.838-33.323-4.011-33.323-4.011s-15.815-185.364-21.673-260.125c-4.312-55.033-7.986-135.16-7.986-135.16
				L2149.557,1453.547z"/>
			<path fill="#ED7D2B" d="M2143.764,1556.365c-2.319,39.572-4.957,83.037-7.221,115.588
				c-15.008-35.397-45.666-173.368-45.666-173.368L2143.764,1556.365z"/>
			<path fill="#24406D" d="M2146.141,1855.559h81.645c5.85-3.967-1.578-42.752-1.578-42.752s-22.282-8.454-26.131,8.739
				c-3.861,17.183-28.383,22.646-41.36,24.741C2149.835,1847.731,2147.029,1852.61,2146.141,1855.559z"/>
			<path fill="#FF9E55" d="M2069.198,1444.073c0,0,58.304,145.129,76.942,200.142c13.276,39.187,50.719,176.654,50.719,176.654
				s16.282,4.955,29.967-4.623c0,0,13.93-140.447-14.209-180.048c-14.928-21.012-3.709-218.407-64.238-220.098
				C2087.851,1414.411,2069.198,1444.073,2069.198,1444.073z"/>
			<path fill="#AEC3FF" d="M2188.583,1397.395c-0.245,20.637-0.472,35.789-0.418,39.618c0.164,12.486-7.821,15.307-16.054,17.208
				c0,0-7.603,1.637-17.197,3.265c-9.396,1.573-20.729,3.129-28.73,3.074c-40.938-0.327-75.197-12.378-75.197-12.378
				c-7.704,0-11.215-11.914-12.479-28.55c-0.854-11.259,2.62-123.546,3.057-151.585c0.3-20.109,11.341-38.69,14.425-41.409
				c28.586-25.275,112.94-22.092,128.121-4.657c3.756,4.312,4.847,45.885,4.974,91.423
				C2189.165,1342.716,2188.865,1373.675,2188.583,1397.395z"/>
			<path fill="#FFB27D" d="M2137.934,1211.977c-10.769,11.668-46.939,9.939-45.866-0.246c0.146-1.255,0.382-8.713,0.501-9.868
				c0.09-0.928,0.182-1.837,0.254-2.692c0.246-2.51,0.446-4.729,0.609-6.648c0.482-5.584,0.637-8.612,0.637-8.612s0.018,0,0.036,0
				c1.037-0.291,24.294-6.894,35.862-9.632c3.883-0.918,6.457-1.4,6.412-1.064
				C2132.831,1199.197,2141.462,1208.146,2137.934,1211.977z"/>
			<path fill="#ED975D" d="M2131.194,1181.944c0,0-9.714,9.868-37.763,10.577c0.482-5.584,0.637-8.612,0.637-8.612s0.018,0,0.036,0
				c1.037-0.291,24.294-6.894,35.862-9.632C2132.004,1175.114,2129.303,1180.544,2131.194,1181.944z"/>
			<path fill="#FFB27D" d="M2086.959,1182.527c0,0,7.101,2.549,16.155,3.766c13.24,1.788,30.649,0.733,36.119-15.286
				c9.213-26.964,20.98-43.13-6.129-54.141c-14.513-5.895-23.798-6.207-30.103-3.958c-5.479,1.941-8.709,5.82-11.154,9.656
				C2086.584,1130.818,2075.992,1177.807,2086.959,1182.527z"/>
			<path fill="#233862" d="M2093.888,1101.697c-9.685,6.359-6.521,21.266,4.89,23.271c6.838,1.203,12.574,1.442,15.893,2.918
				c6.742,2.996,12.537,6.173,10.943,16.632c-0.54,3.558-2.274,7.891,6.881,5.739c1.5-0.351,2.582-0.248,3.326,0.199
				c3.798,2.253-1.056,13.176-2.52,15.54c0,0-2.106,7.823,2.568,11.632c0.566,0.456,9.75,4.47,31.883-29.401
				c3.479-5.316,6.801-17.294,1.428-28.826c-5.366-11.532-20.335-26.117-48.53-26.117
				C2113.309,1093.284,2102.274,1096.189,2093.888,1101.697z"/>
			<path fill="#94B0ED" d="M2188.583,1397.395c-4.119,19.146-3.071,19.347-9.39,14.323c-25.748-20.465-18.223-31.185-12.502-48.921
				c5.721-17.734-14.361-45.474,0-57.297c14.043-11.56,22.046,7.075,22.392,7.903
				C2189.165,1342.716,2188.865,1373.675,2188.583,1397.395z"/>
			<path fill="#FFB27D" d="M2187.952,1394.933c0,0-9.703,15.87-16.067,15.311c-6.363-0.561-14.947-2.934-19.906,1.797
				c-4.959,4.729-12.946,16.934-10.713,20.183c2.232,3.249,11.209,0.368,17.659-3.19c6.451-3.557,16.607,1.753,22.021-2.288
				c5.413-4.042,18.376-20.09,18.376-20.09L2187.952,1394.933z"/>
			<path fill="#AEC3FF" d="M2184.111,1221.98c0,0,80.543,75.789,70.083,126.204c-4.767,22.972-19.555,42.353-58.966,73.729
				c0,0-18.645-12.884-22.737-23.343c0,0,35.773-50.387,34.391-58.966c-1.692-10.501-26.113-36.835-34.875-40.928
				S2164.051,1230.776,2184.111,1221.98z"/>
			<path fill="#FFB27D" d="M2171.885,1410.243c0,0-8.488-3.714-11.217-5.306c-2.729-1.591-2.123,0.985-1.289,2.274
				c0.834,1.288,3.107,4.168,6.442,4.471C2169.156,1411.986,2171.885,1410.243,2171.885,1410.243z"/>
		</g>
	</g>
	<g>
		<path fill="#163560" d="M755.657,1245.553c-2.912-5.616,63.529-25.84,64.582,29.586c0,0,124.463-3.06,65.035-72.432
			c-20.573-24.018-18.457-43.874-17.84-62.358c0.625-18.487-12.815-72.214-58.884-66.804c0,0-12.064-4.908-27.121,2.902
			C747.188,1094.211,670.485,1265.992,755.657,1245.553z"/>
		<path fill="#FFB27D" d="M959.139,1296.428c0,0,8.101-12.333,14.63-12.574c6.53-0.243,18.621-3.628,17.654-1.21
			s-8.464,2.66-9.189,4.111c-0.726,1.45,11.124,3.627,14.51,3.87c3.386,0.241,11.366,0,11.124,1.691
			c-0.242,1.693-14.383,8.707-24.361,7.739c-9.979-0.968-22.312,2.902-22.312,2.902L959.139,1296.428z"/>
		<path fill="#AEC3FF" d="M841.971,1300.419c0,0,4.404,8.72,12.392,18.739c9.627,12.058,24.471,25.986,43.109,28.736
			c8.902,1.313,17.608-0.602,25.61-4.156c0.022-0.008,0.029-0.008,0.029-0.008c22.635-10.048,39.656-33.155,39.656-33.155
			c3.99-10.883-2.539-18.261-2.539-18.261s-45.707,10.281-50.06,8.104c-4.353-2.177-31.116-61.55-35.937-71.438
			c-10.247-21.019-26.507-27.048-26.507-27.048L841.971,1300.419z"/>
		<path fill="#94B0ED" d="M854.363,1319.158c9.627,12.058,24.471,25.986,43.109,28.736c8.902,1.313,17.608-0.602,25.61-4.156
			c-0.885,0.115-23.492,2.908-32.502-13.213c-9.192-16.445-19.131-42.563-32.786-33.858
			C851.903,1300.426,852.165,1309.763,854.363,1319.158z"/>
		<path fill="#1D3356" d="M671.449,1793.793c0,0-13.946,12.729-11.225,21.772c2.721,9.043,15.307,15.071,17.008,26.124
			c1.701,11.055,8.504,17.083,14.627,17.083c6.123,0,29.192,0,29.192,0s4.507-7.778-6.378-10.122
			c-10.885-2.346-14.989-15.334-14.309-27.392c0.68-12.059-1.021-28.135-1.021-28.135l-23.131-5.36L671.449,1793.793z"/>
		<path fill="#1D3356" d="M789.494,1799.196c0,0-5.018,53.92,1.106,56.935l78.359-0.16c0,0,0-9.045-12.586-11.055
			c-12.586-2.009-34.697-9.377-38.438-25.79C814.192,1802.714,789.494,1799.196,789.494,1799.196z"/>
		<path fill="#AEC3FF" d="M729.215,1264.05c0,0-1.168,16.462,0,36.218c0.776,13.096,14.023,30.636,15.902,34.975
			c4.716,10.882,10.034,12.652,10.034,12.652l41.143,10.085l14.467,3.54l45.619-13.625c0,0,20.778-57.996,12.435-90.644
			c-8.343-32.647-21.09-55.318-21.09-55.318s-30.927-12.206-85.695-3.091L729.215,1264.05z"/>
		<path fill="#F2CCAA" d="M741.258,1305.612c0.776,13.096,1.981,25.291,3.859,29.63c4.716,10.882,10.034,12.652,10.034,12.652
			l41.143,10.085l17.869-5.253c0,0-59.65-9.04-53.041-60.361L741.258,1305.612z"/>
		<path fill="#233862" d="M853.478,1356.697c0,0,22.591,70.32,24.042,94.262c1.451,23.94-43.185,340.108-44.981,351.14
			c-1.692,10.398-14.605,17.027-14.605,17.027s-5.939,3.503-14.415,1.11c-11.76-3.321-15.477-7.297-15.477-7.297
			s-17.584-225.488-6.702-306.036c10.882-80.55,11.01-150.206,11.01-150.206H853.478z"/>
		<path fill="#2B478B" d="M757.762,1354.602c0,0-34.461,46.237-37.674,77.494s-5.04,141.048-11.884,171.519
			s-31.992,89.11-31.992,184.149c0,0,2.613,5.447,10.685,8.35c2.581,0.928,6.039,1.828,9.396,2.598
			c6.656,1.526,13.485-1.728,16.522-7.843c17.002-34.231,71.158-144.635,73.935-167.552c1.965-16.218,19.064-123.557,56.364-186.542
			c8.955-15.121-5.495-75.255-5.495-75.255L757.762,1354.602z"/>
		<path fill="#233862" d="M857.087,1345.842c0,0-9.07,7.175-27.086,7.537c-21.521,0.434-74.847-5.485-74.847-5.485
			s-2.37,6.619-2.273,13.609c0,0,65.13,16.429,102.866,2.399C855.746,1363.902,860.613,1354.745,857.087,1345.842z"/>
		<g>
			<path fill="#FFFFFF" d="M825.344,1360.811c0-6.128,4.404-11.114,9.819-11.114c5.416,0,9.82,4.986,9.82,11.114
				c0,6.129-4.405,11.115-9.82,11.115C829.748,1371.926,825.344,1366.939,825.344,1360.811z M828.599,1360.811
				c0,4.335,2.945,7.859,6.564,7.859c3.621,0,6.566-3.524,6.566-7.859c0-4.334-2.945-7.859-6.566-7.859
				C831.543,1352.951,828.599,1356.477,828.599,1360.811z"/>
		</g>
		<path fill="#F78248" d="M691.96,1364.589l52.888,46.052c3.821,3.328,9.617,2.928,12.944-0.894l67.483-77.499
			c3.328-3.822,2.927-9.617-0.895-12.944l-52.887-46.053c-3.822-3.328-9.617-2.927-12.945,0.894l-67.483,77.5
			C687.738,1355.466,688.139,1361.262,691.96,1364.589z"/>
		<path fill="#FFB27D" d="M770.203,1358.776c0.751,0.199,28.093,3.412,28.097,9.062c0.005,6.532-8.014,15.285-15.567,14.872
			c-3.061-0.167-17.167-13.139-17.167-13.139L770.203,1358.776z"/>
		<path fill="#FFB27D" d="M784.243,1195.85c3.111-7.545,4.927-19.035,4.875-33.258l2.066,0.407l34.73,6.877
			c0,0-0.79,10.931-0.813,21.228c0,0.086,0,0.171,0,0.256c-0.042,8.942,6.042,17.916-8.303,21.463
			C812.365,1213.918,777.71,1211.694,784.243,1195.85z"/>
		<path fill="#E8945B" d="M825.916,1169.876c0,0-0.791,10.931-0.814,21.228c-19.435-0.548-29.708-18.277-33.917-28.104
			L825.916,1169.876z"/>
		<path fill="#FFB27D" d="M832.406,1179.626c0,0-45.983,0.759-46.015-27.884c-0.032-28.644-5.988-47.836,23.369-49.531
			c29.358-1.695,35.074,9.228,37.41,18.785C849.507,1130.555,844.367,1178.69,832.406,1179.626z"/>
		<path fill="#163560" d="M830.704,1101.508c0,0-12.59,33.605-31.912,38.573c-19.321,4.969-27.703-0.208-27.703-0.208
			s14.821-11.773,17.896-32.325C788.986,1107.548,821.207,1085.515,830.704,1101.508z"/>
		<path fill="#163560" d="M827.583,1104.236c0,0,9.336,3.49,13.179,10.299c3.757,6.659,6.958,15.478,6.216,26.297
			c0,0,9.486-22.841-1.174-35.762C834.5,1091.369,827.583,1104.236,827.583,1104.236z"/>
		<path fill="#FFB27D" d="M770.203,1358.776c0,0,6.553-2.105,10.932-1.492s7.62-0.087,7.62,1.139s-5.654,1.798-6.855,2.388
			C780.697,1361.4,770.203,1358.776,770.203,1358.776z"/>
		<path fill="#AEC3FF" d="M762.029,1198.842c0,0-32.642,2.289-45.154,32.705c-12.512,30.416-36.251,81.484-36.251,90.076
			c0,8.591,13.261,35.074,84.479,50.303c0,0,7.366-7.749,6.92-13.878c0,0-44.458-38.185-44.337-42.647
			c0.226-8.442,7.289-19.586,46.32-58.631C784.617,1246.155,762.029,1198.842,762.029,1198.842z"/>
	</g>
	<g>
		<g>
			<path fill="#F45E4A" d="M1674.241,939.656h-352.733c-8.53,0-16.711,3.389-22.744,9.421l-249.42,249.42
				c-6.032,6.032-9.42,14.213-9.42,22.743v352.733c0,8.53,3.389,16.712,9.42,22.744l249.42,249.42
				c6.033,6.032,14.214,9.421,22.744,9.421h352.733c8.53,0,16.712-3.389,22.744-9.421l249.42-249.42
				c6.032-6.032,9.421-14.214,9.421-22.744V1221.24c0-8.53-3.389-16.711-9.421-22.743l-249.42-249.42
				C1690.953,943.044,1682.771,939.656,1674.241,939.656z"/>
			<g>
				<path fill="#FFE5D4" d="M1649.426,1809.708h-303.103c-12.346,0-23.954-4.809-32.685-13.537l-214.327-214.328
					c-8.729-8.729-13.538-20.337-13.538-32.683v-303.105c0-12.347,4.809-23.955,13.539-32.685l214.325-214.325
					c8.732-8.732,20.34-13.54,32.685-13.54h303.103c12.348,0,23.955,4.808,32.686,13.54l214.326,214.327
					c8.73,8.729,13.539,20.336,13.539,32.683v303.105c0,12.346-4.809,23.953-13.539,32.683l-214.326,214.327
					C1673.381,1804.899,1661.773,1809.708,1649.426,1809.708z M1346.323,1016.936c-3.951,0-7.666,1.537-10.461,4.334
					l-214.325,214.325c-2.794,2.794-4.333,6.508-4.333,10.46v303.105c0,3.951,1.539,7.665,4.333,10.458l214.327,214.329
					c2.794,2.792,6.509,4.331,10.46,4.331h303.103c3.952,0,7.668-1.539,10.462-4.331l214.327-214.327
					c2.792-2.795,4.33-6.509,4.33-10.46v-303.105c0-3.952-1.538-7.666-4.33-10.46l-214.327-214.327
					c-2.794-2.795-6.51-4.332-10.462-4.332H1346.323z"/>
			</g>
			<path fill="#FFE5D4" d="M1742.34,1409.143l-6.175-5.347c-15.514-13.433-39.196-11.729-52.628,3.784l-34.878,40.283
				c-4.984,5.756-14.44,2.23-14.44-5.383l0,0c0-3.193-0.176-6.348-0.508-9.457v-253.602c0-16.655-13.628-30.282-30.283-30.282
				h-2.236c-16.655,0-30.283,13.627-30.283,30.282v165.055c0,4.004-3.246,7.25-7.251,7.25l0,0c-4.422,0-8.007-3.584-8.007-8.006
				v-196.277c0-16.099-13.171-29.27-29.27-29.27h-4.263c-16.099,0-29.27,13.171-29.27,29.27v197.569
				c0,3.708-3.007,6.714-6.714,6.714l0,0c-4.719,0-8.544-3.824-8.544-8.543v-157.501c0-16.655-13.627-30.282-30.283-30.282h-2.236
				c-16.656,0-30.283,13.627-30.283,30.282v158.778c0,4.013-3.253,7.266-7.266,7.266l0,0c-4.413,0-7.991-3.577-7.991-7.991v-124.224
				c0-16.656-13.627-30.283-30.283-30.283h-2.237c-16.655,0-30.283,13.627-30.283,30.283v218.111c0,0.605,0.023,1.205,0.059,1.803
				c-0.035,1.015-0.059,2.031-0.059,3.055v120.054c0,48.796,39.923,88.718,88.718,88.718h120.055
				c31.208,0,58.783-16.332,74.608-40.871c4.779-7.412,9.951-14.563,15.725-21.23l110.29-127.381
				C1759.557,1446.257,1757.853,1422.574,1742.34,1409.143z"/>
		</g>
	</g>
</g>
<g>
	<path fill="#233862" d="M1142.997,279.775l-8.027,24.31h-10.32l26.259-77.288h12.041l26.374,77.288h-10.665l-8.256-24.31H1142.997z
		 M1168.339,271.978l-7.568-22.246c-1.72-5.045-2.867-9.632-4.014-14.104h-0.229c-1.147,4.587-2.408,9.289-3.899,13.99
		l-7.568,22.361H1168.339z"/>
	<path fill="#233862" d="M1252.967,301.562c-3.669,1.835-11.008,3.669-20.412,3.669c-21.787,0-38.185-13.76-38.185-39.102
		c0-24.195,16.398-40.593,40.364-40.593c9.632,0,15.71,2.064,18.347,3.44l-2.408,8.142c-3.784-1.834-9.174-3.21-15.595-3.21
		c-18.118,0-30.158,11.582-30.158,31.878c0,18.92,10.894,31.076,29.7,31.076c6.077,0,12.27-1.261,16.283-3.211L1252.967,301.562z"/>
	<path fill="#233862" d="M1317.068,301.562c-3.669,1.835-11.008,3.669-20.412,3.669c-21.787,0-38.185-13.76-38.185-39.102
		c0-24.195,16.398-40.593,40.364-40.593c9.632,0,15.71,2.064,18.347,3.44l-2.408,8.142c-3.784-1.834-9.174-3.21-15.595-3.21
		c-18.118,0-30.158,11.582-30.158,31.878c0,18.92,10.894,31.076,29.7,31.076c6.077,0,12.27-1.261,16.283-3.211L1317.068,301.562z"/>
	<path fill="#233862" d="M1369.587,267.849h-30.043v27.865h33.483v8.371h-43.46v-77.288h41.74v8.371h-31.763v24.425h30.043V267.849z
		"/>
	<path fill="#233862" d="M1384.608,291.93c4.472,2.752,11.008,5.045,17.889,5.045c10.206,0,16.168-5.39,16.168-13.187
		c0-7.224-4.128-11.353-14.563-15.366c-12.613-4.472-20.411-11.008-20.411-21.902c0-12.04,9.977-20.984,24.998-20.984
		c7.912,0,13.646,1.835,17.086,3.784l-2.752,8.142c-2.523-1.376-7.683-3.669-14.678-3.669c-10.55,0-14.563,6.307-14.563,11.582
		c0,7.224,4.701,10.779,15.366,14.907c13.072,5.045,19.723,11.352,19.723,22.705c0,11.925-8.83,22.246-27.062,22.246
		c-7.454,0-15.595-2.179-19.724-4.931L1384.608,291.93z"/>
	<path fill="#233862" d="M1441.142,291.93c4.472,2.752,11.008,5.045,17.889,5.045c10.206,0,16.168-5.39,16.168-13.187
		c0-7.224-4.128-11.353-14.563-15.366c-12.613-4.472-20.411-11.008-20.411-21.902c0-12.04,9.977-20.984,24.998-20.984
		c7.912,0,13.646,1.835,17.086,3.784l-2.752,8.142c-2.523-1.376-7.683-3.669-14.678-3.669c-10.55,0-14.563,6.307-14.563,11.582
		c0,7.224,4.701,10.779,15.366,14.907c13.072,5.045,19.723,11.352,19.723,22.705c0,11.925-8.83,22.246-27.062,22.246
		c-7.454,0-15.595-2.179-19.724-4.931L1441.142,291.93z"/>
	<path fill="#233862" d="M1523.36,227.83c6.077-0.917,13.302-1.605,21.214-1.605c14.334,0,24.539,3.326,31.305,9.632
		c6.881,6.307,10.894,15.251,10.894,27.75c0,12.614-3.898,22.934-11.123,30.043c-7.224,7.224-19.149,11.123-34.171,11.123
		c-7.109,0-13.072-0.344-18.118-0.917V227.83z M1533.337,296.173c2.522,0.458,6.192,0.573,10.091,0.573
		c21.328,0,32.91-11.926,32.91-32.795c0.114-18.232-10.206-29.814-31.305-29.814c-5.16,0-9.06,0.459-11.696,1.032V296.173z"/>
	<path fill="#233862" d="M1639.749,267.849h-30.043v27.865h33.483v8.371h-43.46v-77.288h41.74v8.371h-31.764v24.425h30.043V267.849z
		"/>
	<path fill="#233862" d="M1656.147,304.085v-77.288h10.894l24.769,39.103c5.733,9.059,10.206,17.201,13.875,25.113l0.229-0.115
		c-0.917-10.32-1.146-19.723-1.146-31.764v-32.337h9.403v77.288h-10.092l-24.539-39.217c-5.39-8.6-10.55-17.43-14.448-25.8
		l-0.344,0.114c0.573,9.747,0.803,19.035,0.803,31.878v33.025H1656.147z"/>
	<path fill="#233862" d="M1741.577,226.797v77.288h-9.977v-77.288H1741.577z"/>
	<path fill="#233862" d="M1799.026,267.849h-30.043v27.865h33.483v8.371h-43.46v-77.288h41.74v8.371h-31.764v24.425h30.043V267.849z
		"/>
	<path fill="#233862" d="M1815.425,227.83c6.077-0.917,13.302-1.605,21.214-1.605c14.334,0,24.539,3.326,31.305,9.632
		c6.881,6.307,10.894,15.251,10.894,27.75c0,12.614-3.898,22.934-11.123,30.043c-7.224,7.224-19.149,11.123-34.171,11.123
		c-7.109,0-13.072-0.344-18.118-0.917V227.83z M1825.401,296.173c2.522,0.458,6.192,0.573,10.091,0.573
		c21.328,0,32.91-11.926,32.91-32.795c0.114-18.232-10.206-29.814-31.305-29.814c-5.16,0-9.06,0.459-11.696,1.032V296.173z"/>
</g>
<g>
</g>
<g>
</g>
<g>
</g>
<g>
</g>
<g>
</g>
<g>
</g>
</svg>
