<svg id="close_upload_file" xmlns="http://www.w3.org/2000/svg" width="20.167" height="20.167" viewBox="0 0 20.167 20.167">
  <path id="Path_11542" data-name="Path 11542" d="M10.083,20.167A10.083,10.083,0,1,1,20.167,10.083,10.095,10.095,0,0,1,10.083,20.167Zm0-18.726a8.643,8.643,0,1,0,8.643,8.643A8.653,8.653,0,0,0,10.083,1.44Zm0,0" fill="#f85252"/>
  <path id="Path_11543" data-name="Path 11543" d="M154.21,154.931a.717.717,0,0,1-.509-.211l-7.2-7.2a.72.72,0,0,1,1.018-1.018l7.2,7.2a.72.72,0,0,1-.509,1.23Zm0,0" transform="translate(-140.525 -140.526)" fill="#f85252"/>
  <path id="Path_11544" data-name="Path 11544" d="M147.006,154.93a.72.72,0,0,1-.509-1.229l7.2-7.2a.72.72,0,1,1,1.018,1.018l-7.2,7.2A.717.717,0,0,1,147.006,154.93Zm0,0" transform="translate(-140.524 -140.525)" fill="#f85252"/>
</svg>
