<svg xmlns="http://www.w3.org/2000/svg" width="32.22" height="32.22" viewBox="0 0 32.22 32.22">
  <g id="Collieries" transform="translate(0 0)">
    <path id="Union_4" data-name="Union 4" d="M20.829,27.5a4.656,4.656,0,0,1,4.721-4.722c4.062.053,4.72,3.927,4.72,4.722a4.72,4.72,0,0,1-9.44,0Zm3.776.943h1.888V26.556H24.606ZM1.951,27.5a4.72,4.72,0,1,1,4.72,4.719A4.73,4.73,0,0,1,1.951,27.5Zm3.775.943H7.615V26.556H5.726ZM0,15.229V11.453H32.22v3.776ZM2.311,9.565,1.628,8.2l4.1-2.049V2.374L10.632,0l1.889,1.809L16.11,0l4.72,2.374V4.262L24.606,6.15V7.678h3.415l.943,1.888Z" transform="translate(0 0)" fill="#fff"/>
    <path id="Path_15804" data-name="Path 15804" d="M35.2,272l1.5,4.485a6.591,6.591,0,0,1,9.565,5.9,6.522,6.522,0,0,1-.1.944h5.855a6.437,6.437,0,0,1,6.449-7.553,6.343,6.343,0,0,1,3.018.718l1.5-4.492Z" transform="translate(-32.982 -254.883)" fill="#fff"/>
  </g>
</svg>
