<svg xmlns="http://www.w3.org/2000/svg" width="20.753" height="28.492" viewBox="0 0 20.753 28.492">
  <g id="M" transform="translate(-5353.394 -11069.12)">
    <g id="location_8_" data-name="location (8)" transform="translate(5353.394 11069.12)">
      <path id="Path_19189" data-name="Path 19189" d="M248.5,0V28.492a.859.859,0,0,0,.717-.386l7.943-12.014A10.377,10.377,0,0,0,248.5,0Z" transform="translate(-238.123)" fill="#2c5fc3"/>
      <path id="Path_19190" data-name="Path 19190" d="M78.475,28.106,85.1,16.092a11.84,11.84,0,0,0,1.431-5.716C86.533,4.646,82.658,0,77.877,0a10.377,10.377,0,0,0-8.661,16.092l7.943,12.014a.859.859,0,0,0,.717.386A.7.7,0,0,0,78.475,28.106Z" transform="translate(-67.5)" fill="#3477f9"/>
      <path id="Path_19191" data-name="Path 19191" d="M248.5,60V73.873A6.937,6.937,0,1,0,248.5,60Z" transform="translate(-238.123 -56.56)" fill="#fff0e2"/>
      <path id="Path_19192" data-name="Path 19192" d="M139.654,66.937c0-3.831-2.336-6.937-5.217-6.937a6.937,6.937,0,1,0,0,13.873C137.318,73.873,139.654,70.768,139.654,66.937Z" transform="translate(-124.06 -56.56)" fill="#fff"/>
    </g>
    <text id="M-2" data-name="M" transform="translate(5359 11083)" fill="#223284" font-size="10" font-family="SegoeUI-Bold, Segoe UI" font-weight="700"><tspan x="0" y="0">M</tspan></text>
  </g>
</svg>
