<svg id="End_Pin_f" data-name="End Pin f" xmlns="http://www.w3.org/2000/svg" width="17.927" height="24.612" viewBox="0 0 17.927 24.612">
  <g id="location_8_" data-name="location (8)">
    <path id="Path_19189" data-name="Path 19189" d="M248.5,0V24.613a.742.742,0,0,0,.62-.334L255.981,13.9A8.964,8.964,0,0,0,248.5,0Z" transform="translate(-239.536)" fill="#dc924c"/>
    <path id="Path_19190" data-name="Path 19190" d="M76.981,24.279,82.705,13.9a10.228,10.228,0,0,0,1.236-4.938C83.942,4.013,80.594,0,76.464,0a8.964,8.964,0,0,0-7.482,13.9l6.862,10.378a.742.742,0,0,0,.62.334A.6.6,0,0,0,76.981,24.279Z" transform="translate(-67.5)" fill="#fbaa5d"/>
    <path id="Path_19191" data-name="Path 19191" d="M248.5,60V71.984A5.992,5.992,0,1,0,248.5,60Z" transform="translate(-239.536 -57.029)" fill="#fff0e2"/>
    <path id="Path_19192" data-name="Path 19192" d="M138,65.992c0-3.309-2.018-5.992-4.507-5.992a5.992,5.992,0,1,0,0,11.984C135.981,71.984,138,69.3,138,65.992Z" transform="translate(-124.529 -57.029)" fill="#fff"/>
  </g>
  <path id="Path_19194" data-name="Path 19194" d="M6.583-55.612v1.3h2.09v1.2H6.583v1.406H8.947v1.25H5.022v-6.407H8.947v1.25Z" transform="translate(2.192 62.624)" fill="#c46e1d"/>
</svg>
