<svg xmlns="http://www.w3.org/2000/svg" width="159.094" height="218.424" viewBox="0 0 159.094 218.424">
  <g id="location_8_" data-name="location (8)" transform="translate(-67.5)">
    <path id="Path_19189" data-name="Path 19189" d="M248.5,0V218.424a6.585,6.585,0,0,0,5.5-2.961l60.894-92.1A79.551,79.551,0,0,0,248.5,0Z" transform="translate(-101.453)" fill="#cc3245"/>
    <path id="Path_19190" data-name="Path 19190" d="M151.634,215.463l50.8-92.1a90.769,90.769,0,0,0,10.973-43.818C213.409,35.614,183.7,0,147.047,0A79.551,79.551,0,0,0,80.652,123.365l60.894,92.1a6.583,6.583,0,0,0,5.5,2.961A5.332,5.332,0,0,0,151.634,215.463Z" fill="#ff3e3a"/>
    <path id="Path_19191" data-name="Path 19191" d="M248.5,60V166.355A53.178,53.178,0,0,0,248.5,60Z" transform="translate(-101.453 -33.631)" fill="#c4f3ff"/>
    <path id="Path_19192" data-name="Path 19192" d="M220.671,113.178C220.671,83.809,202.765,60,180.678,60a53.178,53.178,0,0,0,0,106.355C202.765,166.355,220.671,142.547,220.671,113.178Z" transform="translate(-33.631 -33.631)" fill="#fff"/>
  </g>
</svg>
