<svg xmlns="http://www.w3.org/2000/svg" width="43.215" height="10.785" viewBox="0 0 43.215 10.785">
  <path id="MSME" d="M12.855-10.53V0H10.29V-6.315L7.935,0H5.865L3.5-6.33V0H.93V-10.53H3.96L6.915-3.24,9.84-10.53ZM18.51.105A5.417,5.417,0,0,1,16.44-.27a3.374,3.374,0,0,1-1.462-1.11A3.033,3.033,0,0,1,14.4-3.15h2.73a1.325,1.325,0,0,0,.405.892,1.3,1.3,0,0,0,.9.308,1.408,1.408,0,0,0,.9-.262.878.878,0,0,0,.33-.727.861.861,0,0,0-.262-.645,2.118,2.118,0,0,0-.645-.42A10.375,10.375,0,0,0,17.67-4.38,11.841,11.841,0,0,1,16-5.01a3.076,3.076,0,0,1-1.11-.93,2.591,2.591,0,0,1-.465-1.6,2.76,2.76,0,0,1,1.065-2.3,4.376,4.376,0,0,1,2.775-.832,4.427,4.427,0,0,1,2.805.832,2.98,2.98,0,0,1,1.14,2.318H19.44a1.085,1.085,0,0,0-.375-.8,1.321,1.321,0,0,0-.885-.293,1.1,1.1,0,0,0-.75.248.893.893,0,0,0-.285.713.883.883,0,0,0,.48.8,7.868,7.868,0,0,0,1.5.615,13.872,13.872,0,0,1,1.657.66,3.155,3.155,0,0,1,1.1.915,2.449,2.449,0,0,1,.465,1.545A3.032,3.032,0,0,1,21.892-1.5,3.2,3.2,0,0,1,20.565-.33,4.544,4.544,0,0,1,18.51.105ZM35.85-10.53V0H33.285V-6.315L30.93,0H28.86L26.49-6.33V0H23.925V-10.53h3.03L29.91-3.24l2.925-7.29Zm4.41,2.055v2.13h3.435v1.98H40.26v2.31h3.885V0h-6.45V-10.53h6.45v2.055Z" transform="translate(-0.93 10.68)" fill="#fff"/>
</svg>
