<svg xmlns="http://www.w3.org/2000/svg" width="157" height="156" viewBox="0 0 157 156">
  <g id="side_vehicle" transform="translate(-2994 -152)">
    <g id="Rectangle_2060" data-name="Rectangle 2060" transform="translate(2994 152)" fill="#fff" stroke="#b8c4d1" stroke-width="3">
      <rect width="157" height="156" rx="16" stroke="none"/>
      <rect x="1.5" y="1.5" width="154" height="153" rx="14.5" fill="none"/>
    </g>
    <g id="delivery-truck_2_" data-name="delivery-truck (2)" transform="translate(3045 109.061)">
      <path id="Path_15227" data-name="Path 15227" d="M-24.418,130.916V94.594a3.655,3.655,0,0,1,3.655-3.655H42.954a3.655,3.655,0,0,1,3.655,3.655v36.323a1.218,1.218,0,0,1-1.218,1.218H-23.2A1.218,1.218,0,0,1-24.418,130.916Zm38,12.443a7.58,7.58,0,1,1-7.58-7.58A7.58,7.58,0,0,1,13.585,143.36Zm-3.79,0a3.79,3.79,0,1,0-3.79,3.79A3.79,3.79,0,0,0,9.8,143.36Zm-9.841-7.58H-20.763A1.218,1.218,0,0,0-21.981,137v3.7a1.218,1.218,0,0,0,1.218,1.218H-3.416A10,10,0,0,1-.045,135.779Zm72.017,7.58a7.58,7.58,0,1,1-7.58-7.58A7.58,7.58,0,0,1,71.971,143.36Zm-3.79,0a3.79,3.79,0,1,0-3.79,3.79A3.79,3.79,0,0,0,68.181,143.36ZM85.372,137v3.7a1.218,1.218,0,0,1-1.218,1.218H74.29a10,10,0,0,0-19.8,0H15.365a10,10,0,0,0-3.371-6.132h38.1V100.935A2.436,2.436,0,0,1,52.528,98.5h11.5a9.745,9.745,0,0,1,8.077,4.292l7.414,10.981a9.746,9.746,0,0,1,1.669,5.453v16.554h2.965A1.218,1.218,0,0,1,85.372,137ZM73.013,114.053l-5.929-8.425a1.218,1.218,0,0,0-1-.517H56.84a1.218,1.218,0,0,0-1.218,1.218v8.425a1.218,1.218,0,0,0,1.218,1.218H72.017A1.218,1.218,0,0,0,73.013,114.053Z" fill="#b8c4d1"/>
    </g>
  </g>
</svg>
