<svg id="Start_Pin_bl" data-name="Start Pin bl" xmlns="http://www.w3.org/2000/svg" width="20.753" height="28.492" viewBox="0 0 20.753 28.492">
  <g id="location_8_" data-name="location (8)">
    <path id="Path_19189" data-name="Path 19189" d="M248.5,0V28.492a.859.859,0,0,0,.717-.386l7.943-12.014A10.377,10.377,0,0,0,248.5,0Z" transform="translate(-238.123)" fill="#2c5fc3"/>
    <path id="Path_19190" data-name="Path 19190" d="M78.475,28.106,85.1,16.092a11.84,11.84,0,0,0,1.431-5.716C86.533,4.646,82.658,0,77.877,0a10.377,10.377,0,0,0-8.661,16.092l7.943,12.014a.859.859,0,0,0,.717.386A.7.7,0,0,0,78.475,28.106Z" transform="translate(-67.5)" fill="#3477f9"/>
    <path id="Path_19191" data-name="Path 19191" d="M248.5,60V73.873A6.937,6.937,0,1,0,248.5,60Z" transform="translate(-238.123 -56.56)" fill="#fff0e2"/>
    <path id="Path_19192" data-name="Path 19192" d="M139.654,66.937c0-3.831-2.336-6.937-5.217-6.937a6.937,6.937,0,1,0,0,13.873C137.318,73.873,139.654,70.768,139.654,66.937Z" transform="translate(-124.06 -56.56)" fill="#fff"/>
  </g>
  <path id="Path_19193" data-name="Path 19193" d="M6.3-50.075a3.816,3.816,0,0,1-1.458-.264,2.377,2.377,0,0,1-1.03-.782A2.136,2.136,0,0,1,3.4-52.368H5.325a.933.933,0,0,0,.285.629.917.917,0,0,0,.634.217.991.991,0,0,0,.634-.185.618.618,0,0,0,.232-.512.607.607,0,0,0-.185-.454,1.491,1.491,0,0,0-.454-.3,7.306,7.306,0,0,0-.766-.264,8.34,8.34,0,0,1-1.173-.444,2.167,2.167,0,0,1-.782-.655,1.825,1.825,0,0,1-.328-1.131,1.944,1.944,0,0,1,.75-1.622,3.083,3.083,0,0,1,1.955-.586,3.118,3.118,0,0,1,1.976.586,2.1,2.1,0,0,1,.8,1.632H6.952a.764.764,0,0,0-.264-.565.931.931,0,0,0-.623-.206.777.777,0,0,0-.528.174.629.629,0,0,0-.2.5.622.622,0,0,0,.338.56,5.542,5.542,0,0,0,1.057.433A9.771,9.771,0,0,1,7.9-54.09a2.223,2.223,0,0,1,.777.645A1.725,1.725,0,0,1,9-52.357a2.136,2.136,0,0,1-.322,1.152,2.257,2.257,0,0,1-.935.824A3.2,3.2,0,0,1,6.3-50.075Z" transform="translate(4.216 64.237)" fill="#223284"/>
</svg>
