<svg id="Start_Pin_f" data-name="Start Pin f" xmlns="http://www.w3.org/2000/svg" width="17.927" height="24.612" viewBox="0 0 17.927 24.612">
  <g id="location_8_" data-name="location (8)">
    <path id="Path_19189" data-name="Path 19189" d="M248.5,0V24.613a.742.742,0,0,0,.62-.334L255.981,13.9A8.964,8.964,0,0,0,248.5,0Z" transform="translate(-239.536)" fill="#dc924c"/>
    <path id="Path_19190" data-name="Path 19190" d="M76.981,24.279,82.705,13.9a10.228,10.228,0,0,0,1.236-4.938C83.942,4.013,80.594,0,76.464,0a8.964,8.964,0,0,0-7.482,13.9l6.862,10.378a.742.742,0,0,0,.62.334A.6.6,0,0,0,76.981,24.279Z" transform="translate(-67.5)" fill="#fbaa5d"/>
    <path id="Path_19191" data-name="Path 19191" d="M248.5,60V71.984A5.992,5.992,0,1,0,248.5,60Z" transform="translate(-239.536 -57.029)" fill="#fff0e2"/>
    <path id="Path_19192" data-name="Path 19192" d="M138,65.992c0-3.309-2.018-5.992-4.507-5.992a5.992,5.992,0,1,0,0,11.984C135.981,71.984,138,69.3,138,65.992Z" transform="translate(-124.529 -57.029)" fill="#fff"/>
  </g>
  <path id="Path_19193" data-name="Path 19193" d="M5.9-51.109a3.3,3.3,0,0,1-1.26-.228,2.053,2.053,0,0,1-.89-.675A1.845,1.845,0,0,1,3.4-53.09H5.063a.806.806,0,0,0,.246.543.792.792,0,0,0,.548.187.856.856,0,0,0,.548-.16.534.534,0,0,0,.2-.443.524.524,0,0,0-.16-.392,1.288,1.288,0,0,0-.392-.256,6.311,6.311,0,0,0-.662-.228,7.2,7.2,0,0,1-1.013-.383,1.872,1.872,0,0,1-.675-.566,1.577,1.577,0,0,1-.283-.977,1.679,1.679,0,0,1,.648-1.4,2.663,2.663,0,0,1,1.689-.507,2.694,2.694,0,0,1,1.707.507,1.813,1.813,0,0,1,.694,1.41H6.469a.66.66,0,0,0-.228-.488.8.8,0,0,0-.539-.178.671.671,0,0,0-.456.151.543.543,0,0,0-.173.434.537.537,0,0,0,.292.484,4.787,4.787,0,0,0,.913.374,8.441,8.441,0,0,1,1.009.4,1.92,1.92,0,0,1,.671.557,1.49,1.49,0,0,1,.283.94,1.845,1.845,0,0,1-.278.995,1.95,1.95,0,0,1-.808.712A2.765,2.765,0,0,1,5.9-51.109Z" transform="translate(3.179 63.343)" fill="#c46e1d"/>
</svg>
