<svg id="success" xmlns="http://www.w3.org/2000/svg" width="20.201" height="20.201" viewBox="0 0 20.201 20.201">
  <g id="Group_2876" data-name="Group 2876">
    <g id="Group_2875" data-name="Group 2875">
      <path id="Path_11501" data-name="Path 11501" d="M10.1,0A10.1,10.1,0,1,0,20.2,10.1,10.112,10.112,0,0,0,10.1,0Zm0,18.636A8.536,8.536,0,1,1,18.636,10.1,8.546,8.546,0,0,1,10.1,18.636Z" fill="#24be9e"/>
    </g>
  </g>
  <g id="Group_2878" data-name="Group 2878" transform="translate(5.211 6.385)">
    <g id="Group_2877" data-name="Group 2877">
      <path id="Path_11502" data-name="Path 11502" d="M141.6,162.027a.783.783,0,0,0-1.1.053l-4.773,5.255-2.306-2.344a.782.782,0,1,0-1.116,1.1l2.886,2.934a.781.781,0,0,0,.558.234h.015a.783.783,0,0,0,.564-.257l5.329-5.868A.783.783,0,0,0,141.6,162.027Z" transform="translate(-132.079 -161.824)" fill="#24be9e"/>
    </g>
  </g>
</svg>
