<svg xmlns="http://www.w3.org/2000/svg" width="17.269" height="17.268" viewBox="0 0 17.269 17.268">
  <g id="Total_Collieries" data-name="Total Collieries" transform="translate(0 0)">
    <path id="Union_4" data-name="Union 4" d="M11.164,14.739a2.5,2.5,0,0,1,2.53-2.531,2.566,2.566,0,0,1,2.53,2.531,2.53,2.53,0,0,1-5.06,0Zm2.024.506H14.2V14.233H13.188ZM1.046,14.739a2.53,2.53,0,1,1,2.53,2.529A2.535,2.535,0,0,1,1.046,14.739Zm2.023.506H4.081V14.233H3.069ZM0,8.162V6.138H17.269V8.162ZM1.239,5.127.873,4.395l2.2-1.1V1.272L5.7,0,6.711.97,8.634,0l2.53,1.272V2.284L13.188,3.3v.819h1.83l.506,1.012Z" transform="translate(0 0)"/>
    <path id="Path_15804" data-name="Path 15804" d="M35.2,272l.8,2.4a3.532,3.532,0,0,1,5.126,3.161,3.5,3.5,0,0,1-.051.506h3.138a3.45,3.45,0,0,1,3.456-4.048,3.4,3.4,0,0,1,1.618.385l.8-2.407Z" transform="translate(-34.01 -262.826)"/>
  </g>
</svg>
