<svg xmlns="http://www.w3.org/2000/svg" width="22.443" height="22.443" viewBox="0 0 22.443 22.443">
  <g id="Total_eChallan_" data-name="Total eChallan " transform="translate(3.653) rotate(11)">
    <path id="Path_15811" data-name="Path 15811" d="M6.879,13.759H6.6a.61.61,0,0,1-.587-.418.6.6,0,0,1,.356-.738l4.487-1.726a.6.6,0,0,0,.336-.79A36.712,36.712,0,0,1,8.971.55.6.6,0,0,0,7.877.266l-.865,1.3L5.716.7a.6.6,0,0,0-.912.353L4.411,2.62,3.323,1.9a.6.6,0,0,0-.912.353L2.018,3.817.93,3.092A.6.6,0,0,0,0,3.635a40.824,40.824,0,0,0,1.43,7.6,17.357,17.357,0,0,0,2.456,5.326,3.414,3.414,0,0,0,2.752,1.382h.209a2.094,2.094,0,1,0,.032-4.187ZM3.034,7.4a.6.6,0,0,1,.333-.778l2.991-1.2A.6.6,0,1,1,6.8,6.538c-3.239,1.3-3.048,1.239-3.213,1.239A.6.6,0,0,1,3.034,7.4ZM4.41,10.127a.6.6,0,0,1-.444-1.111l2.991-1.2A.6.6,0,0,1,7.4,8.93Zm11.742.043c-.156,0,.153-.1-4.172,1.562-.005-.009-2.893,1.106-2.888,1.1a.3.3,0,0,0-.085.508A3.29,3.29,0,0,1,8.3,18.822a.169.169,0,0,0,.071.321,3,3,0,0,0,1.39-.338l6.45-2.656a.594.594,0,0,0,.325-.133c1.748-.72,1.666-.667,1.785-.791A3,3,0,0,0,16.151,10.169Z" transform="translate(0 0)"/>
  </g>
</svg>
