<svg xmlns="http://www.w3.org/2000/svg" width="17.592" height="17.592" viewBox="0 0 17.592 17.592">
  <path id="Total_Vehicle" data-name="Total Vehicle" d="M5,1A2.411,2.411,0,0,0,2.6,3.4V4.6a.4.4,0,0,1-.4.4H1.8a.8.8,0,0,0-.8.8V9a.8.8,0,0,0,.8.8h.4a.4.4,0,0,1,.4.4v6.8a1.6,1.6,0,0,0,3.2,0v-.4a.4.4,0,0,1,.4-.4h7.2a.4.4,0,0,1,.4.4v.4a1.6,1.6,0,0,0,3.2,0V10.2a.4.4,0,0,1,.4-.4h.4a.8.8,0,0,0,.8-.8V5.8a.8.8,0,0,0-.8-.8h-.4a.4.4,0,0,1-.4-.4V3.4a2.411,2.411,0,0,0-2.4-2.4ZM4.6,5h4a.4.4,0,0,1,.4.4v4a.4.4,0,0,1-.4.4h-4a.4.4,0,0,1-.4-.4v-4A.4.4,0,0,1,4.6,5ZM11,5h4a.4.4,0,0,1,.4.4v4a.4.4,0,0,1-.4.4H11a.4.4,0,0,1-.4-.4v-4A.4.4,0,0,1,11,5ZM4.6,11.4H7a.4.4,0,0,1,.4.4v.8a.4.4,0,0,1-.4.4H4.6a.4.4,0,0,1-.4-.4v-.8A.4.4,0,0,1,4.6,11.4Zm8,0h2.4a.4.4,0,0,1,.4.4v.8a.4.4,0,0,1-.4.4h-2.4a.4.4,0,0,1-.4-.4v-.8A.4.4,0,0,1,12.594,11.4Z" transform="translate(-1 -1)"/>
</svg>
