<svg xmlns="http://www.w3.org/2000/svg" width="49" height="43.318" viewBox="0 0 49 43.318">
  <g id="user" transform="translate(0 0)">
    <g id="Group_16548" data-name="Group 16548" transform="translate(0 0)">
      <path id="Path_19301" data-name="Path 19301" d="M24.92,0A24.485,24.485,0,0,0,8.735,43.233,6.51,6.51,0,0,1,9.9,42.406l7.311-3.988A2.986,2.986,0,0,0,18.764,35.8v-3A16.254,16.254,0,0,1,15.8,26.669a2.459,2.459,0,0,1-1.134-2.063V21.328a2.448,2.448,0,0,1,.819-1.817V14.772S14.512,7.4,24.5,7.4s9.014,7.375,9.014,7.375v4.739a2.444,2.444,0,0,1,.819,1.817v3.278a2.459,2.459,0,0,1-1.744,2.339,18.013,18.013,0,0,1-2.433,4.9,11.824,11.824,0,0,1-.741.952v3.071a2.984,2.984,0,0,0,1.65,2.67l7.828,3.914a6.518,6.518,0,0,1,1.285.862A24.5,24.5,0,0,0,24.92,0Z" transform="translate(0 0)" fill="#fbaa5d"/>
    </g>
  </g>
</svg>
