<svg xmlns="http://www.w3.org/2000/svg" width="30.865" height="30.865" viewBox="0 0 30.865 30.865">
  <path id="Vehicle" d="M8.015,1A4.231,4.231,0,0,0,3.806,5.209v2.1a.7.7,0,0,1-.7.7H2.4A1.4,1.4,0,0,0,1,9.418v5.612a1.4,1.4,0,0,0,1.4,1.4h.7a.7.7,0,0,1,.7.7V29.059a2.806,2.806,0,0,0,5.612,0v-.7a.7.7,0,0,1,.7-.7H22.746a.7.7,0,0,1,.7.7v.7a2.806,2.806,0,0,0,5.612,0V17.134a.7.7,0,0,1,.7-.7h.7a1.4,1.4,0,0,0,1.4-1.4V9.418a1.4,1.4,0,0,0-1.4-1.4h-.7a.7.7,0,0,1-.7-.7v-2.1A4.231,4.231,0,0,0,24.85,1Zm-.7,7.015h7.015a.7.7,0,0,1,.7.7v7.015a.7.7,0,0,1-.7.7H7.313a.7.7,0,0,1-.7-.7V8.716A.7.7,0,0,1,7.313,8.015Zm11.224,0h7.015a.7.7,0,0,1,.7.7v7.015a.7.7,0,0,1-.7.7H18.537a.7.7,0,0,1-.7-.7V8.716A.7.7,0,0,1,18.537,8.015ZM7.313,19.238h4.209a.7.7,0,0,1,.7.7v1.4a.7.7,0,0,1-.7.7H7.313a.7.7,0,0,1-.7-.7v-1.4A.7.7,0,0,1,7.313,19.238Zm14.029,0h4.209a.7.7,0,0,1,.7.7v1.4a.7.7,0,0,1-.7.7H21.343a.7.7,0,0,1-.7-.7v-1.4A.7.7,0,0,1,21.343,19.238Z" transform="translate(-1 -1)" fill="#fff"/>
</svg>
