<svg xmlns="http://www.w3.org/2000/svg" width="473.132" height="739.479" viewBox="0 0 473.132 739.479">
  <g id="West_Bengal_Map" data-name="West Bengal Map" transform="translate(-34.435 -32.467)" opacity="0.8">
    <path id="Darjeeling" d="M401.2,33.139l.169,5.406v3.548l-1.352,1.69L398.5,47.5l2.7,1.352.676,4.055,3.379,2.365-.507,1.352,2.2,1.183,3.041-.338.845,3.041,1.858,1.858,2.7,1.521.507,1.521-1.352,3.717,2.534,1.183.338,3.21-.169,2.534,2.872,1.352,2.2,3.041-1.858,2.872,1.52,3.041.507,3.21.845,4.055v4.224l-1.352,4.224-.845,4.224-.507,3.041-2.027,3.21-.676,1.014-.169,2.872-1.858,3.041-1.014,3.886,1.52.676,2.365,1.69,2.2-.338,1.521-.169v-2.027l2.027-1.521,2.872.676,2.365-1.352-1.014-1.183,1.69,1.183.169,2.872-3.717,2.027-2.365,2.534v1.352l1.689,1.858,3.21-1.183.507,3.21,1.689.507,1.858-2.7.338-2.2.845-1.183,1.69,1.858,3.21-1.858.507-.676,2.7.845,2.027-2.7.338-2.2.169-3.21s.169,2.027.845-.338l.676-2.365,1.352-3.041,1.69-1.014-.845-3.041L450.874,109l-1.014-2.027-1.014-2.872-.507-.845,2.7-2.7,2.2.845,1.521-.507.676-1.689-1.859-1.014-1.858-1.69.338-2.534,1.183-1.352-.169-2.872-.507-3.21.845-2.7L455.1,81.8h1.183l2.2-1.014,1.69-.338.845.676-2.027-2.872-1.52-2.7L457.8,72.5l-2.872-2.872-1.352-1.689-2.7-1.183.169-3.717-2.027-.845-1.352-.845,2.534-2.027.507-1.014-.845-1.183.845-.845-.676-2.7,1.52-2.027,1.183-1.689-2.365-.845-2.2-.338-1.689-1.014-2.534.845-1.521-.845-2.2-1.69L438.71,47.5l-.507-2.534-1.52-.338h-2.2l-1.352-1.183L431.783,44.8l-3.548,1.014-2.027-.338-.169-2.027L423,43.783,420.632,44.8l-1.689,2.7-2.365-1.014-4.562-2.534-1.689-.338-.169-3.548-1.352-1.69-.169-2.534-.676-1.858-2.2-.676-3.21-.338Z" transform="translate(-117.838)" fill="#de2d26" stroke="#fff" stroke-width="1"/>
    <path id="Kalimpong" d="M476.318,50.788l-2.7,3.717.676,2.7-.845.845.845,1.183-3.041,3.041,3.379,1.689-.169,3.717,2.7,1.183,4.224,4.562-.338,3.041,2.715,2.214,1.547.884h1.767a5.374,5.374,0,0,0,.111-1.326,2.444,2.444,0,0,0,1.326-.221l.773-.331,1.547-.11.884-.773.331-.552,1.547-.221,1.547.884h1.326l.442-.773.442-1.878h1.436l.994-1.989a4.408,4.408,0,0,0,.773-1.878,6.3,6.3,0,0,1,.884-2.209l.332-1.768h1.1l.221,1.657.884,1.1-.994,1.1.773.773,2.21-.442a15.344,15.344,0,0,1,2.43,0l1.215.11h2.431l1.878-.552h1.215l-.442-2.1.221-2.762,1.1-.773,1.878-.773.331-1.878,2.541.111,1.878.442,2.1,1.436s-.111.773.994,1.1l1.1.331,1.1-1.1-.552-2.983.11-2.983.773-3.2-.663-2.872V49.517l-.884-2.651.332-1.215-2.431.442-.994-1.547-1.878.221-2.43-1.436-1.988-.994-2.872-.221-.442-2.21-2.872,2.762-2.43-1.215-1.1-2.872-1.989-1.436-1.989-.221-1.1,1.989-1.436.663-1.657-.663-1.326-.994-1.1-1.768-2.762.331-1.1-.663-1.436.663-2.1.221-1.989.773a5.838,5.838,0,0,1-.884,1.547l-.331.221-1.1-1.1,1.326,2.762-1.326,1.215L483.875,44.1l-1.768.994-2.1.442-.552,1.657-.663,2.21Z" transform="translate(-141.424 -0.923)" fill="#fcbba1" stroke="#fff" stroke-width="1"/>
    <path id="Jalpaiguri" d="M474.784,121.868l-1.014-2.027-1.52-3.717,2.7-2.7,2.2.845,1.52-.507.676-1.689-3.717-2.7.338-2.534,1.183-1.352-.676-6.082.845-2.7,1.69-2.027,3.379-1.014,1.69-.338-2.7-4.9,4.262,3.1,1.793.227.085-1.552,2.1-.552,1.547-.11s-.331-1.1,1.215-1.326l1.547-.221,1.547.884h1.326l.884-2.651h1.436l.994-1.989,1.657-4.088.332-1.768h1.1l.221,1.657.884,1.1-.994,1.1.773.773,2.209-.442,3.646.11h2.431l3.093-.552-.442-2.1.221-2.762,1.1-.773,1.878-.773.331-1.878,2.541.11,1.878.442,2.1,1.436,2.1,1.436,1.864,1.764,1.156-1.445,1.9-3.289,1.569-1.623,2.023,1.3,1.878,2.456-.972,3.627,1.746,1.008,2.683,1.549,2.284-1.318,2.5-1.442,1.443,1.022,1.47.4v1.47l.134,1.6,2.271-.534,1.871,1.2,1.069-.134-.133,2.806,1.87,1.47-.4,2,.668,1.069-1.069,1.6.534,1.737-.668,2.271-.668.134.4.935-.134,1.871-1.6.4-.267,1.87,1.069,1.336-.8,2.271-.4,1.069-.267,1.87-.267,1.871-1.2,2.271-.8,2.538-.8,2.806.134,1.87,1.6,2,1.336,1.6,1.069-.534,2.405.668H557l.134,1.336-.668.8-1.2.935,1.47.935-.534,1.336,1.336,1.336,1.336,1.87.133,1.2h-3.34l-1.2-.935-1.47-1.47-2.271,1.47-1.069.935h-2l-2.4-1.47H542.3l-2-1.069s.8,1.6.535,2.138l-.267.534a9.443,9.443,0,0,1-.668,2.138l-.267.267-2.271.534,1.336,2-.668,2.539h-2l-2-.668,1.87,2.271-.4,1.47-2.939.267-.534,1.6-.4,1.87-.935,2.672-2.138.4-2,1.871-2.4.935h-1.6l-2.806-1.87-1.407-.812-1,1.48-.935,1.47.133,2.806,1.069,2.539-.935,1.2,1.069,2.939-1.2,1.47-2.539.4-1.6,1.47-2.4-1.47-1.2,4.275-3.073-1.069,1.6-1.47.534-2.806.535-1.069-.935-1.737,2.138-.8,2.405,1.87,3.607-2-.668-3.207-1.2.4L511.57,160.1s1.6,2.138,0,.8-1.6-1.47-1.6-1.47l-.668-3.073v-2.4l-.935.534.534-2.4-.8-2-2,.668-2-1.737-.935.534-.8-1.737-1.47-.134.8-2.672-.935-2.271-2.806-.134h-.935l.8,2.138-2,.935-1.47-1.336-1.6.534.8-2.672-1.2-2-1.737,1.737-1.6-.8v-2.271l-1.6-.8v-.534l-2.538.267v-2.538l-1.2-1.336-1.737-.4-1.069,1.2-1.2.267-2.138-2.806-.8-1.87.4-1.737-.8-2.4-.4-2.4.4-1.737Z" transform="translate(-141.748 -12.871)" fill="#fb6a4a" stroke="#fff" stroke-width="1"/>
    <path id="Alipurduar" d="M591.866,100.906l.534,1.737-.668,2.271-.668.134.268,2.806h0l-1.6.4-.267,1.87,1.069,1.336-1.2,3.34-.534,3.741-1.2,2.271-1.6,5.344.134,1.87,2.939,3.607,1.069-.534a5.028,5.028,0,0,0,2.4.668h1.336l.134,1.336-1.87,1.737,1.47.935-.535,1.336,1.336,1.336,1.336,1.871.134,1.2,2.672-.668.134,1.2,1.47-.668,2.539,1.47.133.8a3.246,3.246,0,0,0,1.871-.668c.8-.668.935-.668.935-.668l1.2,1.069,2.271-.134,1.2,1.069,1.737.668,1.6.668,2.4-.534,2,.668,1.47-.8.535-.8,2.4.267,2.138-.4,1.47,1.47,1.47,1.871.935.8,2-1.2,1.336-.534,1.2.668.935-.668s1.87-.668,1.737-1.336l-.133-.668h2.538l2,.935,1.87,1.069s.4-1.47,2-.534l1.6.935.8.935.8,1.336-.668.534.935,1.6-.4,1.737,2.138,1.2.668-2.271,2-.8,1.2,2.271,1.87,1.2.267,1.069.935-2.806,2.539-.668s1.6,0,1.47-.8,0-.8,0-.8l1.2-.267,1.871.4,1.87,1.336,1.47-1.2v-.534l1.6.134-.4-1.737.935.134,1.87.935-.4-2.539,1.336-1.2h1.737l1.469.534,2.138-.134,2.672-.134h1.069l-1.069-1.87,3.206.935,1.069.4.134-2.271-.935-1.6.4-1.336-.8-2,1.336-1.2-.134-2.271.134-2.539-.668-1.47,2.271-1.2-1.069-2.138.534-2.4-2.271-.935v-1.2l1.87-1.47-.8-2.4.668-2.672-1.47-3.073-2.272.134-3.474-1.069L674.969,114l-2.806,1.069-1.87-3.207-.134-1.87-2,1.2-2.672-.267-2.806-.267-2.138-.935-1.2,2.539L658,113.6l-2.806-.534-1.336-.4.936-2.271,1.47-.534,1.2-1.737.4-2.539-2.539-1.069-.8.935-1.737-1.871h-2.4l-1.871-.534-1.069-1.069-1.6-1.069-1.336.134-.935-1.069a8.408,8.408,0,0,0-3.073,1.2l-.935.8-2.138,1.336-1.737-.935-1.47-2.138L632.883,98.1l-2.672.4h-3.474l-.134-1.47-1.069-2.539-2.405.534-2.271,1.87-1.6,1.069-1.47-1.47-1.336,1.2-2.271,1.336-1.47,2.138-3.206.668-1.2-1.2-2.271.267-1.737,1.069-1.2,1.6-1.47-2.4-2.405,1.069-.668,1.069h-2.539l-.935-1.6-2.138-2.4h0Z" transform="translate(-178.622 -19.946)" fill="#fb6a4a" stroke="#fff" stroke-width="1"/>
    <path id="Cooch_Behar" d="M538.886,192.928l-1.069-2.939.935-1.2-1.069-2.539-.134-2.806,1.933-2.95,4.213,2.683h1.6l2.4-.935,2-1.871,2.138-.4,1.336-4.543.534-1.6,2.939-.267.4-1.47-1.871-2.271,2,.668h2l.668-2.539-1.336-2,2.271-.535.935-2.4-.267-2.672,2,1.069h2.939l2.4,1.47h2l3.34-2.4,2.672,2.4h3.34l2.672-.668.133,1.2,1.47-.668,2.539,1.47.134.8h0l2.806-1.336,1.2,1.069,2.271-.134,1.2,1.069,3.34,1.336,2.405-.534,2,.668,1.47-.8.534-.8,2.405.267,2.138-.4,1.469,1.47,2.405,2.672,3.34-1.737,1.2.668.936-.668,1.6-2h2.539l3.875,2,1.069-1.069,2.539,1.47,1.6,2.271-.668.534.935,1.6-.4,1.737,2.138,1.2.668-2.271,2-.8,1.2,2.271,1.87,1.2.268,1.069.935-2.806,2.539-.668,1.47-1.6,1.2-.267,1.87.4,1.871,1.336,1.47-1.2v-.534l1.6.134-.4-1.737.935.134,1.87.935-.4-2.538,1.336-1.2h1.737l1.47.534,5.879-.267-1.069-1.871,4.275,1.336.267,1.336,1.336-.935.134,1.737-1.336,1.336-3.34-.534-.8,1.336,1.069.935-1.069.935,1.47.668,1.2-.4.936,2.939-2.806.4s2.806,2.4,1.47,2.138l-1.336-.267-1.6,1.069.4,2.271-2-2.138-1.6,1.737-1.47.267.8,3.474-2.272,1.737-1.87.267,1.069,1.871-.8.935h-3.741l1.47,1.87V194.4l-2.138.267-1.069-1.871v1.737l2.272,2.4s-2,1.6-1.2,2.4l.8.8,1.87.935-2.137.8.133,2.138-2.939.668-2-2.539.8-.8,2.138.534-1.336-2.539-.668-2.138-.267,2-1.47,1.737-1.87-.534-1.737-1.47.134,2.4,1.6,1.87s-4.676,1.336-2.672,1.069l2-.267,1.6,2.806s.935,1.871-1.2.668l-2.138-1.2h-2.138l-1.2,3.073.534,2.806,1.87,1.069s1.6-2.271,1.069-.935l-.534,1.336-1.2,1.069-1.737,1.2,2.138,1.2,1.6-2.672s2.806,1.871,2,2.806l-.8.935,1.87,2-.8,1.069-2.538.267-2.4,1.737-1.2,1.737-.668.8-.935,2.939,1.737,2.4-1.47,1.336s0,.267-1.6,1.069-.134,2-1.6.8l-1.469-1.2s-1.47-1.6-.534-2.806l.935-1.2a5.129,5.129,0,0,1-2.138-.267l-1.2-.4a1.787,1.787,0,0,1-2,.935l-1.47-.267-1.336,1.336s.4-.267-2-1.069-2.539-.8-2.539-.8l-.668-3.474-1.069-1.2-1.2,1.2L615.71,227s1.47,1.069.267,1.737l-1.2.668-3.474-.668-2.538-.8-1.737-2.271-2.539-2.138-2.806,1.069.4-2.672-2.138.267-.668-1.336.8-1.47-1.87-1.336-1.6-1.87-1.47-2s.4.134-1.2.134h-1.6l-2,.267-2.538-1.87-1.336-2.539v-1.6l-2-1.6,1.737-3.741-2.138-3.741-1.6-3.207-2-1.871s-1.737-.134-.4-1.2l1.336-1.069,1.871.8.8-3.875-2-.8-.936,2-1.069.534s1.069-2.138,0-2.271l-1.069-.134,1.336-2.939-2-2.539.134-3.073-2-.267-1.737-1.069-2.672,1.069-.936-2.138-1.87-.668-2.539-.4-.8-2.806-2.94-2.4-1.87.8a1.244,1.244,0,0,1,.8,1.737l-.534,1.336-1.737-.267-1.469,1.069,1.069,1.069-.668.935h-1.871l1.2,2,.134,2.672-.134.668,2.672,1.47,2-1.069.668,1.47-1.2,1.737,1.6,1.069.134-2.806h2.672l-.534,2.4,2.271.668-1.6,1.2-.8,2.539h1.737l.535,1.47,2-.534.8-2.672.668.935v1.87s1.336,2.138,2,.668l.668-1.47,1.871,1.87-.668,1.336.134,1.737-1.336.668.134,1.6-2.672-.267-2-.134-2.4.134-2.4,1.2-2.806-1.6L560.931,196l-1.469-2.271H557.19l-2.672.4-1.737-.935-1.069,2.538V198l1.737,1.737.935.935-2.806.668-3.207-1.336L546.1,198.94l-.668-3.607v-3.207l-2.271-.935-1.871.935Z" transform="translate(-162.918 -41.29)" fill="#fb6a4a" stroke="#fff" stroke-width="1"/>
    <path id="Uttar_Dinajpur" d="M423.487,179.478l1.858-2.7a2.208,2.208,0,0,1,.338-2.2l.845-1.183,1.689,1.858,3.21-1.858.507-.676,2.7.845.839,1.908-.189,1.134,1.795,1.323.945.85-.283-3.59.472-1.417h2.267s-.189,2.078.567,1.323l.756-.756,1.228.283,1.8,1.889,1.323-1.417,1.984,1.7,1.417-.85,2.173,1.039.567,1.134,1.89,1.889v2.173l1.984,2.362.567,2.645.567,2.551-1.606,2.267-2.078-1.7-.472,1.7-2.551-1.228-1.228-2.078a1.6,1.6,0,0,1-.567,1.889l-1.039.661.094,2.267-1.417.756-2.456-.85-.472,1.512,1.134,1.984-2.74-.283-1.417,1.323-.85,1.228-2.173,2.645.378,2.173-.189,1.323.85,1.984-1.323,2.173-1.417.945-2.74,1.228-1.984.283-1.417,1.984-3.5-.283H424.8l-1.323,3.118-2.551.283s.283-.945-1.039.567l-1.323,1.512s-1.228-.945-.945,1.134l.283,2.078-.472,1.606-1.323,1.984.756,2.078,1.795,1.606-.095,1.7-.85.472.567,2.078s1.8.756,1.228,1.417l-.567.661s0,.189-1.889.378a10.289,10.289,0,0,1-1.889.189h-1.039l-.378,2.551-1.039,1.606-.85,1.512.661,1.89-1.323.283-.284,2.173-1.039,1.7-.945-.945-.85,1.7.567,2.078,1.134,2.645.567,1.89s-.945,1.039,0,1.512l.945.472s.283-.189-.567,1.228l-.85,1.417.85,1.7,1.417,1.606.283,2.551,2.929-.094.567,2.362,1.7-2.078h1.228l.756-2.362,1.039.378s.189,1.7.567,1.7h.378l1.606-.661s-.284-1.512.472-.945l.756.567,1.512-1.889,1.889-.472,2.362.472V267.3l1.984.378,1.134,1.228,1.795,1.8s-.945,1.134,1.134,1.417l2.078.283,2.362,1.039,2.267,1.889-.189,2.362,1.512.756,1.606,2.173,3.306,1.039,2.456-.283,1.228,2.362-.661,2.267-.189,3.118a6.327,6.327,0,0,1-1.134,2.74c-.945,1.228-1.039.661-1.039.661s-2.74-.095-2.173-.945.472-.85.472-.85l-1.417-1.134-1.039.283-.661,1.7-1.89-.095-1.039,1.323-.756,1.984-1.228.661-.85.945-1.984.094-.756,1.323.472,1.984-2.268,1.512-1.417.472-1.228,1.134-.189,1.984L430,306.036l-1.323.189.472,1.323,1.134.661v3.212l-.945,1.8-1.323.094-.661-1.417-1.323-.095-1.323.473-1.039,1.134.85.945-.756.945.85,1.8-1.228,1.984-1.323-.945-1.511-1.134-.756-.472-.472,2.267,1.134,1.417.945.094-.567,1.039-1.606.945,1.039,1.417v1.039l-.945,1.7,1.228.283,2.362-.189,2.362-.756,1.134,1.7,2.267.756,1.039-.283s1.795.283,1.417,1.039l-.378.756s.094.756-1.228,1.228l-1.323.472-.85-1.984-2.551-.189-.662,1.228-1.228,1.8-1.134.85-1.7-2.2-2.4-.4-1.069,1.6a1.029,1.029,0,0,0-.267,1.6c.8.935,1.336-1.069.8.935l-.535,2-2.138,1.336-.668-3.607-2-.668.534-2.138,1.47-.134s1.6-1.6.267-2.4l-1.336-.8s-1.069-1.069.134-2.939l1.2-1.87-.8-2.672-3.073-1.47,1.737-1.2v-1.47s1.069-1.336.134-1.737l-.935-.4-1.2-2.271-1.6-1.871-.8-2.271-.668-3.875-.935-.935,1.47-.4-1.47-1.87-3.073-1.6-1.069-2.539-.267-2.138-.134-2.4,1.336-1.6.134-3.207,1.737-.4-2.138-1.336,1.47-1.737-.935-2.4.534-1.336-1.069-1.6s-.935,3.207-2.138,1.069l-1.2-2.138s-1.069-3.073-2.806-2.138l-1.737.935-1.069-2.539-2.271-1.2-1.47-4.008a2.317,2.317,0,0,0-2.672.267,9.917,9.917,0,0,1-1.737,1.069l.8-3.741-.935-1.87-1.2-2.672,1.87-1.069,1.069-2-2-1.737-1.737,1.336-2.538-1.47-4.943.134-.534-2.138.267-2.806s-2.672.4-1.87-1.069l.8-1.47,2.806-.935-.935-2.939.4-2-.4-3.073,1.47-3.073v-2.138l1.737-1.737,2.4-.534.4-1.87,1.47-2.138s.534.668,1.336-.267l.8-.935.4-.4.267,1.2,1.2,2.138,2.271-1.6,1.069-.534,2-.535-2.138-2.271,1.737-.4s3.607-.668,1.6-1.47-1.6-4.008-1.6-4.008l1.737-1.069,1.47,1.2.534-2.538,2.538-1.336,1.2-1.336,1.6.8,1.6-.935,1.47.267,2.138-2.138s-.267.134,1.2-1.737l1.47-1.87,2.672-.267.133-2.4s-.267-1.87,1.47-1.87-.535,1.069,1.6,0a10.372,10.372,0,0,0,2-1.069l.267-1.737,3.607-.668,1.47-2.939,2.138-2.138.8-1.87,1.47-.134s.4,1.336.935.534.535-.935.535-.935l.935-1.87-1.737-2.672-.935-1.47-.8,1.336h-1.871l-2-1.871,1.6-1.87,1.737-1.737,1.6-.668-1.871-1.6-1.069-.668Z" transform="translate(-109.711 -45.307)" fill="#fb6a4a" stroke="#fff" stroke-width="1"/>
    <path id="Dakshin_Dinajpur" d="M473.978,344.968l-2.173,3.4s-3.483.187-2.592-.8l.891-.991-1.417-1.134-1.039.283-.661,1.7-1.89-.095-1.795,3.307-1.228.661-.85.945-1.984.095-.756,1.323.472,1.984-2.268,1.511-1.417.472-1.228,1.134-.189,1.984-1.889,1.134-1.323.189.472,1.323,1.134.661v3.212l-.945,1.795-1.323.095-.661-1.417L448,367.642l-1.323.472-1.039,1.134.85.945-.756.945.85,1.795-1.228,1.984-3.59-2.551-.472,2.267,1.134,1.417.945.094-.567,1.039-1.606.945,1.039,2.456-.945,1.7,1.228.283,2.362-.189,2.362-.756,1.134,1.7,2.267.756,1.039-.283,2.581.092,1.482.247,1.73,1.606,1.853.494,2.347-1.112,1.977.741s1.853,1.606,2.718,1.236.741-.371.741-.371-.247-1.606.371-1.606h.618l1.73.988,1.977-1.483-1.73-1.112,1.483-.247h2.595l.123,1.977-.618,2.842,1.853,2.1.741-1.359V391.3l-1.112,1.853v1.483l-1.236,1.236-.247,2.348s1.483-.494,1.73.371a6.509,6.509,0,0,1,.247.988l1.853-1.483.865-1.606,2.965-.124,2.224,1.606,2.224-.618,1.359.741,1.235,2.965h1.853l1.73-2.471.989.124,1.977-2.224,4.077-.247,3.212.741,1.235-.988h2.1l2.348.741,1.853,1.977,2.224,1.112,1.73-2.1L515.3,399.7l3.336.741.741-2.965L521.6,396l.741-1.236.989,1.606,2.1.989,2.347,1.235,2.471.618,1.606,2.1.618-3.212,2.1.741-1.73-3.336L534.2,393.9l1.236.371-.247-3.336-.247-1.112,1.73-2.1,2.1-1.853H541v-1.977l.865-.494H538.4l-1.977-1.73-2.347,1.73-1.853-1.73-1.606.247-1.359-2.595-.494-.988h-1.73v1.977l-1.73-1.606-1.977-2.224v-.988l-2.1.124.371-2.595-1.359-1.606-1.112-1.359-1.112-.865,2.348-.865-.742-3.212,1.606-.988-.741-2.842-.247-1.235-2.1-.989-.741-.865-.247-3.336-1.112-.741-1.73,1.483-2.718-1.236s1.977,1.483.741,1.853-2.224-.371-1.236.494l.988.865-1.606,1.359a1.361,1.361,0,0,1-2.1-.371c-.988-1.359-.741-1.977-1.112-1.359l-.371.618-1.73,1.483-.371,1.853-1.359.865-1.483-1.483-.865,1.606-2.347-1.73h-1.359l-.741-2.224-1.606,1.112-1.853-3.089-.865-.618-1.606,2.471-1.854-.865-2.1-1.359-1.359,2.1-.741-3.83-2.842-1.73-2.1-.494.618-2.965-.741-1.235-2.224.494-1.853-1.853Z" transform="translate(-131.68 -101.15)" fill="#fb6a4a" stroke="#fff" stroke-width="1"/>
    <path id="Malda" d="M405.656,364.966l.668,3.875.8,2.271,1.6,1.87,1.2,2.271h0a1.732,1.732,0,0,1,.866.291c.4.283.485.081.4.242l-.081.162-.388,1.443v1.47l-1.737,1.2,3.073,1.47.8,2.672-1.387,2.125-.323,1.01v1.091l.374.584,1.323.829.646.687-.323,1.01-.577.68-1.47.134-.534,2.138,2,.668.668,3.607,2.138-1.336.68-2.74s-.2.525-.767,0-.646.2-.566-.525-.492-.177.081-.727l.572-.55,1.069-1.6,2.4.4,1.7,2.2,1.134-.85,1.889-3.023,2.551.189.85,1.984,2.13-.683.421-1.018.468-1.083-.323-.283-.242-.364,1.64.026,1.483.247,1.73,1.606,1.853.494,2.347-1.112,1.977.741s1.3,1.915,2.381,1.39l1.078-.525.053-1.7.936.091,1.73.988,1.977-1.483-1.73-1.112,1.483-.247h2.595l.124,1.977-.618,2.842,1.853,2.1s.659-2.086.579-.955l.163,2.067-1.112,1.853v1.483l-1.236,1.236-.247,2.348,1.284.015.693,1.344-.922,1.227,2.228,2.057.514,1.314-1.028,3.428s-2.056-1.257-2.056-.343-.114.8-.114.8,1.028-.114,1.028,1.485v1.6l.343,2.628-.686,1.371-.8,2.742,2.285,1.371-1.714,3.085-1.942,1.714-1.143,1.143,1.257,2.171-1.6,1.257-1.828-.343V435s3.428-.686,1.371,1.028l-2.057,1.714a7.054,7.054,0,0,0-2.285-1.485l-.8-.114-1.714.8a6.116,6.116,0,0,1-.457,2.285c-.457.914-.343.914-.343.914s-1.942-.685-1.828.457l.114,1.143L440.242,443l.571,2.285-1.942,2.285-1.028-2.856-1.828,2.057L434.3,444.83l-3.656,1.143s2.971-2.971,2.171-2.742a4.87,4.87,0,0,1-1.028.229v-2.742l-2.057-2.4-2.285-2.171s.686-3.085-2.513-1.485l-3.2,1.6-2.285.914s-.457,1.714-1.6,2.057l-1.142.343L418.419,443l1.714,1.143-1.828,1.028,1.6,2.514.8.571-2.514,2.057-1.6,1.828-.914,2.742s-.343-1.257-1.371-.8-1.6,4.113-1.6,4.113l-1.714,1.028-1.028,1.028h-1.143a5.263,5.263,0,0,1,.571,3.542c-.343,2.171,1.028-.229-.343,2.171l-1.371,2.4-2.628,2.4-1.828,2.057-1.143,1.942-2.742-1.371-2.514-3.085.686-4.113-.457-3.885-1.143-1.485-2.057-3.2-2.171-2.856-3.2-3.085-1.257-3.085-2.514-3.77-.114-2.856-1.257-5.027L383,432.719s2.856-1.142,1.143-2.742l-1.714-1.6L381.4,425.75l-1.371-1.485-.114-2.171-1.942-.914-3.085-1.028-1.828-3.656-.343-5.027-.343-4.57.229-2.171-1.714-1.6-1.142-.914,2.057.457,1.942,1.257,1.942-.229,2.285.914,1.257.686L379,402.784l-1.142-2.513,1.6-2.285,1.714.343-.343-2.742.8-.571-2.285-1.714s2.514.114-.343-1.828l-2.856-1.942-2.514-.343-1.257-1.942s1.143-1.828.8-2.742.914.686-.343-.914l-1.257-1.6-1.6-.457v-4.342l1.371-.229-.914-2.285,1.714-2.171,2.871,1.658s1.928.513,2.042-.515l.114-1.028s-.8-2.171-.228-2.171.914.914.914.914.686-1.828,2.171-1.828h1.485l-.686-2.628,1.6-2.057s1.6,1.485,1.257-.114l-.343-1.6,2.171.686.686-1.142,1.942-1.828,3.085.343.8-1.143a9.36,9.36,0,0,0,2.4,2.171l.914.343s.914-1.714,1.143-.457l.228,1.257.229,1.714,1.6-1.028h1.028a2.791,2.791,0,0,1,.914,1.828v1.028l2.4-.114h2.4Z" transform="translate(-108.516 -106.041)" fill="#de2d26" stroke="#fff" stroke-width="1"/>
    <path id="Murshidabad" d="M391.379,491.079l1.257,3.085,3.2,3.085,2.171,2.856,2.057,3.2,1.142,1.485.457,3.885-.685,4.113,2.513,3.085,2.742,1.371,2.981,1.686,3.07,3.555,2.1,3.878,1.939,3.232,3.555,4.2s2.1,3.555,3.393,3.878-2.747-2.1,1.293.323l4.04,2.424a2.411,2.411,0,0,0,1.616,2.585l1.939.808,4.686-.162,2.747,2.424,2.908,3.555,4.524,3.07,6.786,1.293,4.686-2.262,3.555,2.424,4.847,2.909,2.262-.323,1.939,3.716.97,2.1,2.585-4.363,2.262,2.424,3.07-.485,2.585,1.454,2.1-1.454h3.878l3.07,1.293,2.424,3.555v12.765l1.454,1.616.969,3.231-3.232,2.585s-4.363.161-3.878.484.323-1.454.485.323.162,1.939.162,1.939l-1.454,2.1h-2.424l1.131,1.131s-2.909,0-2.909.323v.323s.97.161,0,2.585-1.131,2.424-1.131,2.424l-.808,1.292,2.424.485-.808,2.586s.162,1.939-1.293,2.262-1.293.323-1.293.323l-3.555-2.1-1.131-4.363-2.908-1.131h-1.616l.323,4.039-1.293,2.908h-3.07l1.293,2.1-.646,3.232-1.293-.162-1.777,1.454v1.131s-.646-2.1-1.939-1.131-1.454.97-1.454.97v1.777l3.555.646,2.262,1.616v2.585l-1.616-1.293-1.777-1.131-1.616,1.939.97,2.262.485,3.07-.485,1.293.646,1.778-3.393.646s1.616-2.424.808-3.393l-.808-.969h-1.777a3.894,3.894,0,0,1,0,2.747l-.485,1.939-1.939,2.424-.969-3.07-2.424,1.293-2.747-1.616h-1.454l-.969,2.1h-3.231l-2.424.323-2.908-.485-.808,1.777h-2.585l-.323,1.777.323,2.586-.969,1.292-2.424-.646-1.616-.485-2.1.808-2.424,1.616-.646,3.07-2.424-1.454h-.97v-1.777s.162.162-1.616.162h-1.939l-1.293,3.555-3.07.162-1.293-2.1-1.616-2.908.323-.969,2.262-1.616-3.716-2.1-.323-3.716-2.585-2.585-1.616,1.454-2.747-.97.323,2.262-.646,2.262v1.131l-2.1-1.293-2.747-2.262.162-.97-1.939-1.131-2.1,1.777-.646-4.524-1.293,2.262-1.293-2.585-1.939-1.778-.969-3.555,1.293-1.454,1.454.161v-3.878l-1.939-2.1,1.454-2.1-1.293-1.777,1.616-1.131-1.616-3.393,1.939-.161.485-1.293,1.939-.161.808-5.978.97-1.616-2.1-2.1,2.424-2.908-1.616-1.131.808-2.262,3.716-1.939-1.454-1.939,1.454-.485,2.747,1.454,2.909-1.131.646-2.262,1.777-.485-1.454-1.939.485-1.777h1.777l1.616-.485-.485-1.778a4.049,4.049,0,0,1-1.293-2.747v-4.363l-1.454-.646-1.454,1.131v-1.454a2.2,2.2,0,0,0-1.939-1.777l-1.777-.323-.485-2.747,1.131-1.616.162-4.039.646-2.1a6.872,6.872,0,0,1-.808-3.716l.162-2.1-1.131-2.585-1.939-.97-2.585-5.817-3.07-.808-.485-2.747-.323-2.1,1.939-.646-.161-3.07s-2.585,1.454-3.232,0l-.646-1.454s.485-1.454,1.777-1.454h1.454l.808-3.878s-3.393-.162-3.07-1.454a10,10,0,0,1,.485-1.616l1.454-3.07-1.777-1.939-1.293-1.939-1.454.808-2.909-.808-3.232-2.1,1.131-1.454,1.293-2.909V503.9l2.424.323.646-2.908,1.293-.646-1.131-3.393v-.485l2.747.162,1.682-2.791Z" transform="translate(-112.668 -148.52)" fill="#fb6a4a" stroke="#fff" stroke-width="1"/>
    <path id="Birbhum" d="M351.314,545.679l.808,4.848,3.07.808,2.585,5.817,1.939.969,1.131,2.585-.051,3.326.7,2.491-.646,2.1-.162,4.04-1.131,1.616.485,2.747,2.014.716,1.7,1.384v1.454l1.454-1.131,1.454.646.3,5.3.991,1.808.485,1.777-3.393.485-.485,1.777,1.454,1.939-1.777.485-.646,2.262-2.908,1.131-2.747-1.454-1.454.485,1.454,1.939-3.716,1.939-.808,2.262,1.616,1.131-2.424,2.908,2.1,2.1-.969,1.616-.808,5.979-1.939.161-.485,1.293-1.939.161,1.616,3.393-1.616,1.131,1.293,1.777-1.454,2.1,1.939,2.1v3.878l-1.454-.161-1.293,1.454.97,3.555,1.939,1.777,1.293,2.585,1.293-2.262.646,4.524,2.1-1.777,1.939,1.131-.162.969,3.295,3.337,1.553.218-1.324,2.409.457.914-2.171.343.114,1.485,2.056.457-.343.343v1.371l-1.371.229-1.143,1.714-1.828.914-1.028,2.057.914,1.485,1.028,1.942v.686l-1.828.571,1.6,1.714,1.5-.864,1.017,2.578,2.628,1.714-1.028,2.4-.114,2.514s-2.628-.228-2.4.343l.229.571s1.028.686-.114,1.828l-1.143,1.142-1.142,1.714-1.143,1.714-1.485-2.856-2.628,1.714-2.285.229-.8-2.285h-2.856l-1.714.571L341.487,676l-2.285.229-.686-1.371L336,676l-1.6-2.4-1.371-1.828-2.285,1.714-1.257-2.171-2.513,1.371-.686,1.371-2.856-.686-2.285.914-1.942.8-1.828.571-2.285-1.6-2.514.229-1.143-1.942h-1.371l-1.6,2.171-1.714-.571-1.6.343-2.514-.8-2.856-2.171-.457,1.6-.457-2.856-1.485-1.942-.571-2.742-2.4-2.856-2.628-.115-1.714-2.4-2.285.343-2.742-.572-2.628.572-1.828-1.943-1.371-2.514-1.028.114-1.714,1.485a1.635,1.635,0,0,1-2.171,0,7.192,7.192,0,0,0-1.371-.914h-6.627l-2.4-1.257-2.4-1.6-1.6-2.4-1.942-2.056-2.171-.571,4.8.571s.914,2.056,2.285,1.371l1.371-.686,1.6.114,1.143-3.427-2.4-2.514-2.285-1.485.571-2.056,2.057.228,3.2,1.714,1.6,1.143.343-2.057s1.028,2.856,1.6,2.057a11.1,11.1,0,0,1,.685-.914l3.085-.343h1.028s-4.227,2.971-2.856,3.313l1.371.343,2.4-.114.114-3.77a4.1,4.1,0,0,1-.914-3.428l.343-2.171,1.143-1.6.685,1.371.229,2.4s.229,1.942,1.371.8l1.143-1.142.914-2.285-.686-3.77-.114-2.514-1.257-1.028-1.714-.8L278.3,626.3l1.142-.8L278.3,622.53l-1.143,1.371-1.028-1.6-1.143-1.828-.114-1.485,1.257-1.485,1.714,1.028a1.72,1.72,0,0,0,1.942,1.028l1.485-.228,2.285.114,1.942-.8,1.714,1.371a6.243,6.243,0,0,1-1.6,1.714l-.8.457,1.028,1.257s2.057.457,2.628.114l.571-.343,1.257-1.257s.114-.8,1.6-.114l1.485.685,2.057,1.828,2.285-.343s1.257,2.628,1.828,1.828l.571-.8,1.6-.685-.8-1.714-2.514-1.714,2.4-.114s1.6,1.143,2.4.571l.8-.571,1.6-1.485,2.171-1.257v-1.143l-2.285-.914v-2.171l1.142-1.028.571-1.143h-1.485l-.343-1.485.8-2.285h1.828l1.485,1.371,1.257,1.6,2.285.457h2.4l-.571-2.513.571-1.828,1.6-.914,1.942-1.028-1.485-1.371-2.171-.914-1.257-1.028,1.714-.914a1.119,1.119,0,0,0,1.6.229c.914-.686-1.942-.8,1.028-.686l2.971.114s-.457,1.942,1.371,1.714l1.828-.229,3.085.457,1.714-1.828s1.6-2.171-.228-2.742l-1.828-.571-1.257-2.057s.457,1.485-1.828.229a11.236,11.236,0,0,1-2.285-1.371l.685-4.456,1.143-.114.457,1.257,1.257-.685s.8.343,2.628-.914l1.828-1.257-.114-2.628s1.371,1.371.914,0l-.457-1.371,2.628.457,1.942-1.6,1.485-1.143-.114-3.77,1.257-.914.914-1.6,1.257-1.828,1.485-2.4-1.257-1.828,1.942-.343-.114-2.057-.8.686s-3.2.457-2.171-.343l1.028-.8V564.26s1.371,1.029,1.371-.114V563l1.714-1.714-.8-1.828.457-2.971-3.085,1.942,1.143-3.77L340,552.378l.114-1.257,1.485-.457-1.485-2.4-4.227-1.028,1.6-1.485v-.571l1.714.457,1.828.343,1.828,1.143,1.257,1.942,1.6.914,2.057-1.6,1.942-.457Z" transform="translate(-71.573 -166.059)" fill="#fb6a4a" stroke="#fff" stroke-width="1"/>
    <path id="Paschim_Bardhaman" d="M239.774,693.958l2.171.571,1.942,2.056,1.6,2.4,2.4,1.6,2.4,1.257,6.7-.108,2.219,1.374,1.252-.351,1.714-1.485,1.028-.114,1.371,2.514,1.828,1.942,2.628-.571,2.742.571,2.285-.343,1.714,2.4,2.628.114,2.4,2.856.571,2.742,1.485,1.942.457,2.856.457-1.6,2.856,2.171,2.514.8,1.6-.343,1.714.572,1.6-2.171h1.371l1.142,1.942-1.539.355.634,1.8-1.585.106-1.479,1.479v2.007l-1.585.317.211,2.219-.845.951s-.845-2.325-.845-1.374v.951l-1.162.74.74,1.373s-1.479.317-1.479,1.374V732.9l.845.74-1.162.74s-1.057.528-.634,1.056-1.057.74.423.528l1.479-.211v2.324l1.268,1.48s-1.479,0-1.057.528l.423.528s-.317,1.057-.423,1.585.106-.106-.106.528l-.211.634-2.324-1.057s-1.9.422-1.162.951.74-1.057.74.528v1.585l-1.9-1.056-1.8-.634-.845-1.585-2.113-.211-2.007-.634-1.585-1.057L274.1,738.5l-2.747-.951-6.128-4.015-2.113-1.479-3.275-3.17-2.43-1.8-2.219-1.585-2.43.634-2.958-1.162-2.219-.951-2.007-.528-3.17-1.8-3.17-2.007h-1.479l-2.43-1.162-1.268-1.479-2.43.422h-2.219l-1.162,1.162-2.113-.951-1.479-.211-1.374.317-2.324.528-2.007-.951L218,715.152l-1.9-.211a2.042,2.042,0,0,1-1.9-1.373c-.423-1.374-.528-1.374-.528-1.374l-.634-.951-1.374.845-1.057-.634-1.268-.74-2.113-1.268.106-2.113.74-2.536.423-1.8h1.268l.211-3.17-2.219-3.064-.845-2.747-.528-1.9s1.268,1.479,1.373.528-.74-1.268.106-.951.845.423.845.423l.317,2.536s1.585.317,1.9,0-.423,1.057.317-.317l.74-1.374,1.691-.634.845-1.9s.106-.528,1.057-.423.74.845.74.845a3.34,3.34,0,0,0,.211,1.9l.423,1.162,1.162-1.268s-.845-2.008-.951-2.43l-.106-.423v-2.958s1.479-2.219,2.219-2.007-.317-.317.74.211l1.057.528,1.374,3.064,1.9,1.374,2.219-1.162.317-2.536,1.691,1.162,2.43,1.585L230.886,688l3.909,2.113,2.113,1.479.845,1.268Z" transform="translate(-55.55 -211.323)" fill="#fb6a4a" stroke="#fff" stroke-width="1"/>
    <path id="Purba_Bardhaman" d="M323.255,746.156l-1.108-2.53,1.531-.534L326,744.149l.74-2.747-.581-.951,1.215-.106-1.268-1.479v-2.324l-1.638.317s-1.109-1.162-.37-1.426l.74-.264,1.162-.74-.845-.74-.053-1.321,1.532-1.109-.74-1.373,1.162-.74.158-1.057.687,1.479.845-.951-.211-2.219,1.585-.317v-2.007l1.479-1.479,1.585-.105-.634-1.8,1.539-.355,2.514-.229,2.285,1.6,6.055-2.285,2.856.686.686-1.371L351,717.367l1.257,2.171,2.285-1.714,2.971,4.228,2.514-1.143.686,1.371,2.285-.228,2.628,2.971,1.714-.571H370.2l.8,2.285,2.285-.229,2.628-1.714,1.485,2.856,2.285-3.428,1.74-2-.483-.973-.1-.876,2.269-.038.114-2.514,1.028-2.4-2.628-1.714-1.017-2.578-1.5.864-1.6-1.714,1.828-.571v-.686l-1.942-3.428,1.028-2.057,1.828-.914,1.143-1.714,1.371-.229v-1.371l.343-.343-2.057-.457-.114-1.485,2.171-.343-.457-.914,1.324-2.409v-1.131l.646-2.262-.323-2.262,2.747.969,1.616-1.454,2.585,2.585.323,3.716,3.716,2.1-2.262,1.616-.323.969,2.908,5.009,3.07-.162,1.293-3.555,3.555-.162v1.778h.969l2.424,1.454.646-3.07,2.424-1.616,2.1-.808-.664,2.376s1.479-.581,1.162-.053l-.317.528-.475,1.109,1.268,1,1.955.423,1.849,1.215-.476,1h-1.955l-1-.159L411.9,704.1,409.894,704l-1.057-.053-.687,1.162-1.057,1.426-1.215,1.373-.475,1.743-.159,2.8,1.624.842v1.345a3.411,3.411,0,0,0,2.839,1.494h1.942l1.943-.448,1.942,2.092,2.092-1.644,1.494.3.6-.9,1.644.3s-1.345,2.69-.149,2.69h1.2l1.644,2.241,2.092-1.2,1.345,1.345-1.2,1.793-2.241.747-2.092.6.3,1.644,1.494,1.345L425.1,725.4h1.942l.9-1.494,1.943,1.345,1.644-.9,1.345,1.345v1.2l2.391,2.54.6,1.345-1.345,2.54-1.942.9,1.2,1.793-.3.747-3.138-.149-.149,2.092,1.345,1.2-1.644,1.344.6,1.2h2.241l.3,1.643-1.046,2.54-2.69,1.494.149,1.793s1.942.448,1.942,1.046v.6l-1.345.3.149,1.644-.747,2.092,1.644.747,1.345,1.644-1.046.448-1.644-.149.6,1.2h1.942l.6,1.644.9,2.092-1.046.747,1.793,1.793,1.793.747,2.241,1.793s2.092-1.2,2.092-.15v1.046l-1.644,1.345-1.793-.448-.448,1.2-.9,1.643h-1.345l.6,1.494-.3,1.644-.6,1.2s1.046-.149.747,1.2l-.3,1.345-1.2,1.046h-.449l-.9-1.644-.6-.747-1.644.747-2.241.149H423.3l-1.345-.9s-.448-2.988-1.2-1.942l-.747,1.046-1.644-1.644-1.644.9-3.138-.747-2.54.3-.448,2.092-1.345,1.494,1.2.448-.3,3.138-.9,1.942-1.644,1.942-1.793.9-.9,1.942-1.644-.15-2.391,1.2-3.287-.747-.6,1.942.6,1.644-1.046.6-1.046,1.046,1.943,1.2.448,1.793h-2.242v1.345l-1.494-1.644-.747,1.644h-1.494l.9,1.495-2.54,1.494-1.345-1.494h-1.793l.149,1.793h-1.644l-1.644,1.345-2.391.149-2.69,1.046-.3-2.988h-1.793v2.689l-2.839-.6-1.2.747-1.793-.747-.9-1.345-1.046,1.644-2.391-3.138h-1.345l-1.943.9-3.437-.3-.9-2.689-1.494-2.69-2.391-1.2-1.494-.9,2.54-.448,1.942.149,2.391-.747-.448-3.287,1.046-1.494,2.092-.9L361,786.809l-2.54-5.977-.6,2.69-1.943-1.2-3.138-.747.448-2.54-3.287-2.242-.9-3.138L348,772.016l1.644-2.839-1.046-1.793-2.092.15-1.644-1.345-2.54-1.2-2.69-3.437-1.644-.6-1.494-2.69-3.287-2.69-3.437-1.793-2.241-2.839Z" transform="translate(-93.084 -212.11)" fill="#fb6a4a" stroke="#fff" stroke-width="1"/>
    <path id="Nadia" d="M510.285,634.28l-1.454,2.1h-2.424l1.131,1.131-2.909.646h0l.405,1.17-1.536,3.839-.808,1.292,2.424.485-.808,2.585-.249,1.96-2.337.626-3.555-2.1-1.131-4.363-2.908-1.131h-1.616l.323,4.04-1.293,2.909h-3.07l1.293,2.1-.646,3.232-1.293-.161-1.777,1.454v1.131L485,655.742l-2.351,1.32v1.778l3.555.646,2.262,1.616v2.585l-3.393-2.423-1.616,1.939.969,2.262.485,3.07-.485,1.293.646,1.777-3.393.647,1.268-2.733-1.268-1.63h-1.778l.212,2.51-.7,2.176L477.484,675l-.969-3.07-2.424,1.293-2.747-1.616H469.89l-.969,2.1h-3.232l-2.424.323-2.908-.485-.808,1.778h-2.585v4.362l-.969,1.293-4.04-1.131-.664,2.376.845.475-.476,1.11,1.268,1,1.955.423,1.849,1.215-.476,1H454.3l-2.536-.581-3.064-.158-1.743,2.589-1.215,1.373-.475,1.743-.158,2.8,1.624.842V697.4l1.925,1.524,2.856-.03,1.943-.448,1.942,2.092,2.092-1.644s.9,1.2,1.494.3l.742-1.286,1.5.688-.551,1.7-.1.977,1.695.016,1.644,2.241,2.092-1.2,1.345,1.345-1.2,1.793-4.333,1.345.3,1.644,1.494,1.345,1.345-1.644h1.942l.9-1.494,1.943,1.345,1.643-.9,1.345,1.345v1.2l2.391,2.54.6,1.345-1.345,2.54-1.943.9,1.2,1.793-.3.747-3.138-.149-.149,2.092,1.345,1.2L469.744,724l.6,1.2h2.241l.3,1.644-1.046,2.54-2.69,1.494.149,1.793,1.737.458.205,1.186-1.345.3.149,1.643-.747,2.092,1.644.747,1.345,1.643-1.046.448-1.644-.149.6,1.2h1.942l1.494,3.735-1.046.747,1.793,1.793,1.793.747,2.241,1.793,1.807-.725.489.488,1.856-1.27,1.856-1.173,1.856-.1.879,1.759v2.052l-.684,2.052-.879,1.954-1.27,2.736.391,1.368,1.759,1.759,1.368-.782,3.322.586.586,2.345.391,2.345-2.345,1.758-2.736-1.368-1.368,1.173v5.472l-2.345,1.563H481.39L480.413,777v1.954l-.782,1.368.782,3.908.586,1.563,1.954-1.759,4.495.391,1.368,2.345,2.15-.586,1.759-1.563.586,2.736h3.517l2.736,1.368,2.345.2,2.345.391,1.368,1.368-.2,2.345,2.54.391,1.563-1.173,2.15.391s1.172,0,.586-1.563-.586-1.173-.586-1.173l-1.954-1.954s.586-.2.391-1.368l-.2-1.173,2.345-.782-1.563-2.149-.586-2.736,1.563-1.758-.2-2.54,2.149-.977-.391-3.713,1.563-2.736s-4.1-3.713-2.931-3.713h1.172l-.977-2.345,1.172.977L515,759.994l-.52-2.676-.138-1.658,2.211-.138.691-2.9L515.31,749.3l.553-3.04,2.349-.414,2.487,1.105-2.764-3.04-1.658-2.9-1.934-1.8,1.382-2.349,1.106.138,3.592-.829-1.934-3.454-.967-.829.691-.276s-.414,1.382,1.382-.138l1.8-1.52-.967-2.349-1.382-1.52,1.8-1.935s-2.349-1.382-1.244-1.658l1.105-.276v-1.8s.553-2.349,1.382-1.382l.829.967,1.658-1.105a2.008,2.008,0,0,1-.691-2.487l.553-1.8L525.4,712l-2.073-1.105-1.8,1.935-1.8,1.382s-.276.138-1.658-.829l-1.382-.967s-.415,0-1.244-.967l-.829-.967-2.073-.276-1.244-2.9-1.382-.829-1.8-.691-1.382-2.211.414-2.763-.414-2.487-2.487-.415-1.8,1.382-2.073.553s-2.349.138-1.935-.414-.967,1.8.415-.553l1.382-2.349.553-2.073H496.38l-.138-1.8,1.382-2.9.415-2.073a5.239,5.239,0,0,1-1.52-2.625l-.276-1.52,1.658-2.349-.691-2.349.691-1.243s-3.592-1.382-2.073-1.658-.276,2.487,1.52-.276,2.211-1.935,1.8-2.764l-.414-.829,1.8-.691s-1.8-.415-1.52-1.658l.276-1.244s-3.454-2.487-2.349-2.9l1.106-.415,3.04-.138,1.52-.138,1.658.967,1.105-.967,1.934-.138.967-1.935.967-.553,1.8-1.8,1.105-1.658,1.382.967.829-1.658,1.8-.277.138-2.211.415-1.105-.967-3.04.691-2.073,1.934.276,1.105-1.382-.553-2.349-1.52.276-2.487,1.935s-2.349-.967-.829-1.935l1.52-.967.415-3.593s-2.625.138-2.073-1.658l.553-1.8L514.066,636v-1.934h-.829l-1.8,1.658Z" transform="translate(-132.949 -194.876)" fill="#fb6a4a" stroke="#fff" stroke-width="1"/>
    <path id="Bankura" d="M209.662,732.845l2.007.951,3.7-.845,1.479.211,2.113.951,1.162-1.162h2.219l2.43-.423,1.268,1.479,2.43,1.162h1.479l2.731,1.838,3.609,1.966,2.007.528,5.177,2.113,2.43-.634,4.649,3.381,3.275,3.17,3.514,2.637,4.728,2.857,2.747.951,1.373,1.691,1.585,1.057,4.121.846.845,1.584,3.7,1.691,3.775,4.274,2.737,3.356,3.437,1.793,3.287,2.69,1.494,2.689,1.644.6,2.69,3.437,2.54,1.2,1.643,1.345,2.092-.149,1.046,1.793-1.644,2.839,1.046,1.644.9,3.138,3.287,2.242-.448,2.54,3.138.747,1.942,1.2.6-2.69,2.54,5.977,2.241,1.793-2.092.9-1.046,1.494.448,3.287-2.391.747-4.483.3,1.494.9.229,2.125-2.044-.128-1.022,2.172-2.556-.383-1.533-.384-.128,2.173,2.045,1.15-.383,2.939s-.256-.255-.511.894l-.255,1.15-1.917.767-.128,1.278.128-.895.511,2.811-1.15,1.022-1.661-.511-.767-.766-1.534.511-1.022-.639.128-1.15-2.172-.639-.767-.895-1.278.128L288.9,823s-1.022-.894-1.533-.767l-.511.128-2.044.767-1.917,1.406-3.067.767-.767-1.661H275.74l-.639-1.278-2.683.256-.895-1.406-2.172.128-1.278-.895h-1.917l-2.428,1.022h-.894L261.94,823l-.639,1.022-1.661.128-.767.511.511,1.406-1.917.383-1.917.511-2.3.128-1.278-.256L250.7,826.2l-1.022,1.661-2.428,1.022-1.278-1.022-1.533.639.894.639-1.022,1.661-1.789,2.172-1.533,1.917H236l-2.811-.511H232.3l-.894,3.578.894,2.3,1.406,2.172,1.661,2.173-.383,1.789.767,2.044-.511.767-2.045.639-3.067.767-.256,2.044-1.789,1.405L226.8,855.2l1.278,1.917-.128,2.3-1.022,1.406-1.15-.383-2.556-2.939-2.045.128-1.406,1.534-.256,1.789.511,1.405-2.172.511-1.661,1.405-3.322-3.705-1.789-.511-2.811-1.533-2.044-2.3-2.939-1.278-1.022-1.789-2.044.767-2.044-1.533-.383-1.406-2.683-1.533H193.2l-.639-1.022-1.661.767a14.521,14.521,0,0,1-1.789-1.916l-.767-1.022-2.3.128-2.045-2.683-2.556-1.023-3.322-.128s-.767,0-.128-1.533.639-.128.639-1.533V838.08l2.811.639,1.15-1.789,1.278-.128.639-2.045,1.917-1.406,2.939-1.278v-3.45l-2.3-5.111,2.3-1.789,1.022-4.089,1.022-1.022a4.753,4.753,0,0,1,.128-2.684c.511-1.278.511-1.15.511-1.15l-1.15-1.789,1.406-1.15-.511-1.789,1.533-4.855-1.278-1.15-2.172-1.406a6.378,6.378,0,0,0,.767-2.683l.128-1.661,1.661-2.428,1.533-.639s-1.278-1.406-.256-2.428l1.022-1.022,2.683-.383-.383-2.683-1.917-2.556,1.789-1.533-.894-2.428.511-1.278-.639-1.533,1.15-1.278-.511-1.406v-2.3l.639-1.533,2.3-.128.767-1.277-.383-1.278,2.939-.128-.894-2.3,2.428-.128-.511-3.322.639-2.172,1.917-1.661a21.2,21.2,0,0,1-3.45.383h-1.533s-.894-.256-.383-2.3l.511-2.044,4.217.383.639-2.428,1.917-2.172,2.045.895-1.917-2.939.639-2.939-1.533-1.278-2.044-2.939,1.406-.767,1.406.256-.511-1.917-.128-1.789.511-2.811Z" transform="translate(-46.266 -226.798)" fill="#fb6a4a" stroke="#fff" stroke-width="1"/>
    <path id="Purulia" d="M151.668,721.271l4.438,2.642,1.374-.845.634.951,2.43,2.747,1.9.211.951,2.219-1.517,1.223-.511,2.811.639,3.706-2.811.511,2.044,2.939,1.533,1.278-.639,2.939,1.917,2.939-2.044-.894-1.917,2.172-.639,2.428-4.217-.383-.488,3.107.361,1.237,4.983-.384-1.917,1.661-.639,2.172.511,3.322-2.428.128.894,2.3-2.939.128.383,1.278-.767,1.278-2.3.128-.639,1.533v2.3l.511,1.406-1.15,1.278.639,1.533-.511,1.278.894,2.428-1.789,1.533,1.917,2.556.383,2.683-2.683.384-1.486,1.542.72,1.908-1.533.639-1.661,2.428-.894,4.344,2.172,1.405,1.278,1.15-1.533,4.856.511,1.789-1.406,1.15,1.15,1.789-.791,2.4.152,1.438-1.022,1.022-1.022,4.089-2.3,1.789,2.3,5.111v3.45l-4.856,2.683-.639,2.044-1.278.128-1.15,1.789-2.811-.639.067,1.943-1.175,1.716.271,1.265-.542,2.259-.9,2.44-1.175.813.181,1.807-1.988.994-.542,2.439-1.9-1.174-2.44.723-2.259-.633s3.072,4.7.361,2.168-1.265-2.168-1.265-2.168-2.168,1.265-3.072-.9l-.9-2.168-1.988-2.349-3.795-3.795s-.723,1.265.361-1.627.723.723,1.084-2.891.361-2.168.361-3.614v-1.445l2.349.361-.723-2.891,1.988-1.626-3.433-2.349v-2.349s.361,1.627,2.349-.181l1.988-1.807,2.349.723,3.433-.9,1.084-3.433s1.446,2.168,1.446.362v-1.988h-1.988l-1.626,2.71-2.168-2.891-3.795.181-2.53.723-2.711-1.446-3.072,2.53s-.542.542-1.626-.723l-1.084-1.265-1.807.362-3.795.361-4.156-3.252-2.168,1.445-2.168,1.265-5.24.181-1.807-1.988-1.807.18-1.807-4.156H76.411l-.9-2.349-1.446-1.084v-2.169l-3.253-.9-1.988.361-1.807-2.168-2.168-.361-2.711-.9.9-1.627-2.168-3.614-2.53-1.265-1.807,1.265-3.614-2.169L51.112,793a1.712,1.712,0,0,0-2.168.361l-1.084,1.084L45.871,793s-4.879-3.253-3.614-3.795,1.265-.723,1.265-.723l-2.168-2.711-3.976-.542.361-2.53-2.711-2.891.9-1.988,1.265-1.807.9-3.614s2.891.723,3.072-1.265l.181-1.988,2.53-1.807-2.891-1.626,1.446-4.156,2.168.542s-3.072-.723-1.807-1.807,1.807,1.446,1.265-1.084l-.542-2.53s-2.168,3.253-2.53.9l-.361-2.349s0-3.072,2.168-3.614,2.349-.542,2.349-.542l5.421.361,3.253-1.626,3.433,1.265,1.807-1.265,4.879-.542L60.87,747.1l-1.988-4.7v-2.169l3.976-2.891,3.795,1.807,5.24-.181,2.891,1.446v3.614l-.9,1.084,1.988,2.53L74.6,751.441l3.433-.181,4.156,1.987L84,754.513l.723-2.53,1.265-.361v2.711l-1.807,2.53,2.711,1.084,2.349-1.987,3.072,1.264s1.807,2.169,1.988,1.627l.181-.542V755.6l1.988-1.987,1.807.542,1.807-2.349v-5.06l1.807-2.168-1.807-2.349,3.253-5.06,2.168-.181,1.988.362-.542-1.988,3.072-1.084s-1.265-1.265-.542-2.169.723-.723.723-.723l2.891-1.084,2.891-.361,3.614,1.084,2.711-1.265,6.325-5.24h3.795l2.891-1.626,4.879-1.446,4.879.542.723,2.349,3.433-.9Z" transform="translate(0 -223.148)" fill="#fb6a4a" stroke="#fff" stroke-width="1"/>
    <path id="Howrah" d="M399.966,916.4l1.661-1.661,2.044,1.022,2.811-1.789v-2.3l3.706.511,1.15-1.533-1.661-1.405.384-1.661-.767-3.322,1.661-2.044.895-8.945h2.428l1.406-1.15,2.172,4.345-1.406,2.044.895,2.939,2.3,3.067h2.428l1.917,1.022v-1.789l1.15-2.811,1.15,3.45,3.833-1.022.128-1.15h1.533l.511,2.044,3.706.511.511-1.661,1.533,3.322,1.533,1.533.256-1.917,3.833-.511h1.789l1.789-.767,2.3,2.683,1.661-1.278,3.195.511.767-1.789,3.45,1.278,2.679,3.3.951,1.743-.9,1.743-1.638,3.064-.581,2.113-2.589,2.483-1.955-.053-1.373.634-.793-1.109-2.377-.106-1.426-.9-2.8.74,1.162.476-.951,1.532,1.479.951-.135,1.536L445.2,925.6l-2.3.256-4.6,4.728-3.067.511h-2.172v2.428l1.022,2.939,2.045,1.789L436,940.293l-2.3,1.15-2.428,2.172-1.15,2.555,1.278,3.323v3.322l-2.172,2.044-.894,4.855-2.428,4.089h-2.3l-4.472-2.172-4.6-5.367v-4.345l-.128-6.006-1.661-4.089.256-1.661-2.172-1.916-.894-1.789-3.067.128-3.322-1.406.256-1.661,2.811-1.533-2.044-1.788-2.172-2.939h2.3v-1.917l-2.428-1.15-2.555-3.067v-2.3l1.15-1.278Z" transform="translate(-118.231 -278.538)" fill="#a50f15" stroke="#fff" stroke-width="1"/>
    <path id="path34" d="M259.063,891.758l1.917-.384-.256-2.811.383-1.789-3.067-4.345-.894-2.3.894-3.578,3.706.511h4.983l4.345-5.75-.894-.639,1.533-.639,1.278,1.022,2.428-1.022,1.022-1.661,2.556.895,6.133-1.022-.511-1.405.767-.512,1.661-.127,1.533-2.556h.894l2.428-1.022h1.917l1.278.895,2.172-.128.894,1.405,2.683-.256.639,1.278h3.322l.767,1.661,3.067-.766,1.917-1.405,1.022,2.555,2.683,2.939-1.533,2.428,4.089-.256,4.728,3.195,2.811-1.661,1.533.894.639,3.323,1.278,1.15,4.983.767-.256,2.939h2.811l1.533-1.789,3.322,2.683-1.917-1.022,1.917,1.022v3.833l2.811,3.067-.255,2.428L344.93,897l2.683,2.811-.383,1.917,2.811,2.811,3.706,2.3.894,1.15-1.15,1.278v2.3l2.556,3.067,2.428,1.15V917.7h-2.3l-2.428-.639-2.044,1.661-.767.383-3.067,2.428-1.405-.128-2.3,1.15" transform="translate(-72.011 -268.976)" fill="#d3d3d3" stroke="#000" stroke-width="1"/>
    <path id="Jhargram" d="M170.465,906.6l.542-2.439,1.988-.994-.181-1.807,1.175-.813.9-2.439.542-2.259,3.648-.324,2.556,1.022,2.044,2.683,2.3-.128,2.556,2.939,1.661-.766.639,1.022h1.917l2.683,1.533.383,1.406,2.044,1.533L199.91,906l1.022,1.789,2.939,1.278,2.044,2.3,2.811,1.533,1.789.511,3.322,3.706,1.661-1.406,2.172-.511-.511-1.406.256-1.789,1.406-1.533,2.045-.128,2.556,2.939,1.15.384,1.022-1.406.128-2.3-1.278-1.917,3.067-2.556.255-2.044,3.195-1.022,2.738,3.552,2.913.507.507,3.8-2.153,1.14-1.393,2.913,1.646,2.406v2.913h-1.646l3.419,7.725-2.406,3.419.127,4.559-.76,1.646h2.913l1.9,1.9-2.026,2.279,4.432,2.406,1.52-1.14,1.14.506v2.026l1.52,1.393,2.153-.633,1.266-1.52,3.039.127,1.773-1.393,2.279.886-.887,1.266-8.485,3.926-3.926,4.685,3.166,1.773,3.293,2.28-1.646,2.533,4.812,3.293-.253,3.039-2.786-.76-3.293.38-.127,2.659,1.013,2.659h-.887l.127,3.166,1.52,1.773-4.686,1.9-1.14,1.646.127,2.28,1.013.76-1.393.76.507,1.9h1.646l2.153,2.406,1.266,1.9,2.533,2.026,1.393,3.292,2.533,5.952-1.013,1.9-4.306-1.393-1.52-1.773-1.393,2.406-.507,3.293-2.533,1.52-2.989-.876-1.97,3.4,1.075,1.612-.9,2.687-.358,1.074h-2.686l-3.94-.9-1.97-1.433-2.507-4.656a13.6,13.6,0,0,1,1.254-4.3l2.149-4.3-.537-4.656-1.075-3.761-4.3-2.149-3.224-2.328-6.985-.716-5.373-1.254-2.328.717-3.94-4.3-1.433-3.761-3.582,1.612-5.015.716s-1.433-5.194-.9-6.626l.537-1.433.9-2.149s.179,2.328,3.224,1.074-.358.358,3.045-1.254l3.4-1.612v-3.94l5.373.537,3.582-.358s2.149-4.119.537-5.015l-1.612-.9s-4.477-.179-5.015-1.791l-.537-1.612,1.612-7.164-2.865-3.4-7.343-1.791-1.433-4.477.537-3.044,4.477.358,1.254-3.582-3.761-5.194-3.4-3.761-4.119.537-5.015,1.074-3.582-3.4-1.433-1.075.716-6.268-4.656-4.3-1.791-.358Z" transform="translate(-43.909 -279.641)" fill="#fcbba1" stroke="#fff" stroke-width="1"/>
    <g id="g45" transform="translate(234.113 648.08)">
      <g id="g36">
        <g id="g39">
          <path id="Purba_Medinipur" d="M331.14,1041.6l-.253-2.026-1.266-1.52.886-1.14,1.266-3.8,1.266-2.279-1.646-5.066,2.786-1.013,1.773-1.9-.76-3.292,4.052-2.026-2.28-1.393-1.52-2.026-.127-3.292-2.406-.633v-2.786l2.533-.633-.506-1.52.633-2.28-1.14-1.393,2.533-2.153,3.166.38,2.28.886,5.7-3.546,1.773.886,1.646-.76,6.079-.507,4.179-3.546-.76-1.393.76-2.533-.127-2.279,2.786-1.013-.253-2.026-4.052-1.9,1.14-5.065.127-2.786,1.266-3.039.253-2.153-2.406-1.52-4.179.887-2.786-1.52,1.773-9.118-1.52-2.786.76-3.419,1.773-1.013.253-2.153,1.52-.507.633-3.293L361.027,947l2.153-.633,1.52,1.9,2.96.4,2.3-1.15,1.406.128,5.878-4.472,2.428.639,2.172,2.939,2.044,1.789-2.811,1.533-.256,1.661,1.481,2.616,2.659.507,2.913,2.912,1.013,4.306.633,5.192s-1.14-2.533-1.013-1.013l.127,1.519-.127,4.306,1.393,4.179,3.8,2.786-.253,1.9,6.585,2.28,2.913-.253,4.559,2.406,1.646-1.013s4.179-.38,4.179.127v.506l7.092,8.865-1.9,3.926-3.419,3.166-4.052,2.659-5.319,3.166-4.939-4.685v-2.533l-4.052-3.546-4.306-.253s-1.773.507,0,.76l1.773.253,3.672,1.9,1.646,4.686,3.8,3.8-3.546,10.638-3.926,9.624-6.459,7.979-3.926,1.9-6.079,6.332-3.8,3.8-3.039,1.52h-3.039l-3.419,3.672-9.5,3.166-3.293.507-7.978,1.14-8.358,3.166-.633-2.786-2.279-1.267.507-2.533.38-5.445-1.393-2.66-1.646-.126Z" transform="translate(-329.62 -943.168)" fill="#de2d26" stroke="#fff" stroke-width="1"/>
        </g>
      </g>
    </g>
    <path id="Paschim_Medinipur" d="M259.063,891.758l1.917-.384-.256-2.811.383-1.789-3.067-4.345-.894-2.3.894-3.578,3.706.511h4.983l4.345-5.75-.894-.639,1.533-.639,1.278,1.022,2.428-1.022,1.022-1.661,2.556.895,6.133-1.022-.511-1.405.767-.512,1.661-.127,1.533-2.556h.894l2.428-1.022h1.917l1.278.895,2.172-.128.894,1.405,2.683-.256.639,1.278h3.322l.767,1.661,3.067-.766,1.917-1.405,1.022,2.555,2.683,2.939-1.533,2.428,4.089-.256,4.728,3.195,2.811-1.661,1.533.894.639,3.323,1.278,1.15,4.983.767-.256,2.939h2.811l1.533-1.789,3.322,2.683-1.917-1.022,1.917,1.022v3.833l2.811,3.067-.255,2.428L344.93,897l2.683,2.811-.383,1.917,2.811,2.811,3.706,2.3.894,1.15-1.15,1.278v2.3l2.556,3.067,2.428,1.15V917.7h-2.3l-2.428-.639-2.044,1.661-.767.383-3.067,2.428-1.405-.128-2.3,1.15-2.96-.4-1.52-1.9-2.153.633-2.28-2.406-.633,3.292-1.52.507-.253,2.153-1.773,1.013-.76,3.419,1.52,2.786-1.013,4.939-.76,4.179,2.786,1.519,4.179-.886,2.406,1.519-.253,2.153-1.266,3.039-.127,2.786-.76,3.673-.38,1.393,2.026.76,2.026,1.14.253,2.026-2.786,1.013.127,2.279-.76,2.533.76,1.393-4.179,3.546-6.079.507-1.646.76-1.773-.886-3.039,2.026-2.659,1.52-2.28-.886-3.166-.38-2.533,2.153,1.14,1.393-.633,2.279.507,1.52-2.533.633v2.786s1.9-.126,2.026.76-.253-1.393.127.886l.38,2.279,1.52,2.026,2.28,1.393a15.131,15.131,0,0,1-2.913,1.646l-1.14.38.76,3.293-1.773,1.9-2.786,1.013.633,1.773,1.013,3.292L308.277,1007l-1.266,3.8-.887,1.14,1.266,1.52.253,2.026h-4.432l-2.659-.634-1.266.634-2.026-2.659-1.773.126-3.166-.38-2.279-1.647-1.773.76-1.52-2.406-1.14-3.419-1.773-3.673-.76-2.659v-2.027l1.9-1.013-3.419-5.825-1.013-3.039-.887-2.026-2.026-4.179L275.1,979.4l-1.9-3.039-1.52-1.266h-1.646l-.507-1.9,1.393-.76s-.887,0-1.013-1.52l-.127-1.519,1.14-1.647,2.153-.633,2.533-1.267-1.52-1.773-.127-3.166h.887l-1.013-2.659.126-2.66s-1.14-.886,1.266-.506,1.14-.38,2.406.38a3.547,3.547,0,0,0,2.406.507l.253-3.039-4.812-3.293,1.646-2.533-3.293-2.279-3.166-1.773,1.773-1.773,2.153-2.912,2.786-1.014,2.913-1.393,2.786-1.52s1.9-.38.253-1.266l-1.646-.886-1.773,1.393-3.039-.127-1.266,1.52-2.153.633-1.52-1.393v-2.026l-1.14-.507-1.52,1.14-4.432-2.406,2.026-2.28-1.9-1.9h-2.913a12,12,0,0,0,.633-3.926V920.13l2.406-3.419-1.646-3.926s-1.773-3.8-1.013-3.8h.886v-2.913l-1.646-2.406s.507-3.293,2.026-3.673l1.52-.38-.507-3.8-2.913-.507Z" transform="translate(-72.011 -268.976)" fill="#de2d26" stroke="#fff" stroke-width="1"/>
    <path id="North_24_Parganas" d="M500.405,892.367l-1.057.264-.581-1.532-2.394-1.851-.166-1.988-1.667-1.655-.053-1.691-1.585-1.427.053-3.381-1.585-.9-2.43-.053-.762-2.273,1.259-4.191.021-1.656-1.28-3.609,1.278-1.789-2.172-2.428-2.3-.511.256-1.661,1.789-1.533.639-1.917v-2.939l2.044-.128.244-.627-.882-2.695,1.789-1.278,2.683-4.217-.383-3.067.764-3.5,1.954-1.759,4.494.391,1.368,2.345,2.15-.586,1.759-1.563.586,2.736h3.517l2.736,1.368,4.69.586,1.368,1.368-.272,2.607,2.617.129,1.563-1.172,2.149.39.709-.465-.476-1.987-2.187-2.238.531-.764-.336-1.776,2.345-.782-1.563-2.15-.586-2.736,1.563-1.759-.2-2.541,2.149-.977-.391-3.713,1.563-2.736-3.307-3.418,1.549-.295-.721-1.962.916.594,1.759-2.931-.658-4.335,2.211-.138.691-2.9-1.934-3.316.553-3.04,2.349-.415,2.105.811-.393-1.491,3.064.331,1.159,2.4,3.4-.083.248-4.637a6.056,6.056,0,0,0,4.223,2.981c3.064.58,2.236.745,2.236.745l4.637-.331,2.235.911s-2.65,2.07-.5,2.07h2.153l3.644-.414,1.49-2.733,1.573,2.07-.745,3.4-.5.828-2.236-1.076-.58,1.9-2.153.828-.663,3.643-.745,1.822L552.476,814l-2.319,1.573-1.822,1.076v2.65l1.159,1.987-.663,1.9.828,1.739-.58,1.739-.993,2.484,1.076,2.815-.414,1.822,1.408,1.49.745-.5,1.573,1.242v1.739s-.083-.248.662.663.745,0,.745.911v.911l-.663.828.828,2.153-.248,1.49,1.739.414,2.9-1.159,1.077,2.567,1.656,1.9-.58,3.726-.331,2.65-2.65,1.573-1.656,2.815.331,3.229,1.739,3.064,2.733,2.9-1.573,4.8-1.9,1.408.414,2.484,3.064.5-.5,1.739L558.6,880.9v3.644l2.236,1.573,1.9,4.72-.662.579,2.9,4.969.828,1.905v2.318l.662.911-1.739,1.988-1.491.828,1.491,1.9,1.159.745-.911,2.319.911,1.242-.993,3.643.911,1.822,3.147.579,1.077,3.064-3.064-.911v2.07l2.484,3.23,2.4,1.574.083,2.484,3.478,2.567.993,2.65-1.159,1.988,1.408,2.649,1.077,1.325-1.49.994-1.656.414-4.72-3.975-.5-4.637-3.478-.414-4.14-3.809-.662-2.236-2.319-1.987v-.994l-2.981.745-1.656-.083-2.65-1.408-2.65-1.077-.414,1.9-2.07.5-.662-.414-1.739-2.236v-2.4l.5-1.656-.662-.828.994-2.4.414-2.9-1.159-1.242-1.987,1.159-2.07.248-.994-2.567-1.9-.663-2.319-3.064-2.567-.662-1.077-.745-.248-3.147-1.822-.828-1.408-2.65-2.9-1.242-.248-2.567-1.987-3.561-1.159-1.491-.911-1.159.745-.745-1.408-1.408-1.9-1.822-.828-2.236-2.319-.249-1.491-1.822-.911,1.242-.663,1.9.331,2.4-.994.911-1.491,2.9-.58,1.9-1.739-1.159h-1.822l-2.65-2.319-.911-.414v4.223l-.828,1.9Z" transform="translate(-145.876 -247.223)" fill="#a50f15" stroke="#fff" stroke-width="1"/>
    <path id="Hoogly" d="M336.18,846l2.044-.767,2.044.639,1.661.639,1.278-.128.767.894,2.172.639-.128,1.15,1.022.639,1.533-.511.767.767,1.661.511,1.15-1.022-.511-2.811,1.917-1.15,1.15-4.983-2.044-1.15.128-2.172,4.089.767,1.022-2.172,2.044.128-.229-2.125,2.391,1.2,1.494,2.689.9,2.69,3.437.3,1.943-.9h1.345l2.391,3.138,1.046-1.644.9,1.345,1.793.747,1.2-.747,2.839.6V840.5h1.793l.3,2.988,2.69-1.046,2.391-.15,1.644-1.345h1.644l-.149-1.793h1.793l1.345,1.494,2.54-1.494-.9-1.494h1.494l.747-1.644,1.494,1.644v-1.345h2.241L402,834.523l-1.943-1.2,2.092-1.643-.6-1.644.6-1.942,3.287.747,2.391-1.2,1.644.149.9-1.943,1.793-.9,1.644-1.943.9-1.942.3-3.138-1.2-.448L415.153,816l.448-2.092,2.54-.3,3.138.747,1.644-.9,1.643,1.644,1.058-1.431.884,2.327,1.345.9,6.575-.149,1.644-.748,1.494,2.391,1.644-1.046.6-1.628-1.047-.912.9-2.839-.6-1.494h1.345l.9-1.644.448-1.2,1.793.448,1.643-1.344.2-1.133,3.713-2.443,1.856-.1.879,1.759v2.052l-.684,2.052-2.149,4.69.391,1.368,1.759,1.759,1.368-.782,3.322.586.977,4.69-2.345,1.759-2.736-1.368-1.368,1.172v5.472l-2.345,1.563h-1.954l-.977,1.954v1.954l-.782,1.368.782,3.908.586,1.563-.764,3.5.383,3.067-2.683,4.216-1.789,1.278s1.15,2.555.894,2.939l-.256.384-2.044.128v2.939l-.639,1.916L437,862.48l-.256,1.661,2.3.511,2.172,2.428-1.278,1.789.767,2.428a4.772,4.772,0,0,1,.383,2.684c-.256,1.406.639-1.534-.256,1.406l-.894,2.939.762,2.273-2.679-3.3h-1.278l-2.172-1.278-.767,1.789-3.194-.511-1.661,1.277-2.3-2.683-1.789.767h-3.45s-2.939.384-2.683,1.406l.256,1.022-1.533-1.533-1.533-3.322L415.4,875.9l-3.705-.511-.511-2.045h-1.533l-.128,1.15-3.833,1.022-1.15-3.45-1.15,2.811v1.789l-1.917-1.022h-2.428l-2.3-3.067-.894-2.939,1.406-2.044-1.15-2.684-1.022-1.661-1.405,1.15h-2.428L391,868.613l-.639,4.728-1.661,2.045.767,3.322-.383,1.661,1.661,1.405-1.15,1.533-3.706-.511v2.3l-2.811,1.789-2.044-1.022-1.661,1.661-3.706-2.3-.767-.639-2.044-2.172.383-1.916-2.683-2.811-2.172-3.195.256-2.428L365.824,869v-3.833l-1.917-1.022L362.5,862.48l-1.533,1.789h-2.811l.255-2.939-2.811-.511-2.172-.255-1.278-1.15-.639-3.322-1.533-.894-2.811,1.661-2.683-1.789-2.045-1.405-4.089.255,1.533-2.427-2.683-2.939Z" transform="translate(-97.634 -249.664)" fill="#de2d26" stroke="#fff" stroke-width="1"/>
    <g id="g59" transform="translate(308.087 630.699)">
      <path id="South_24_Parganas" d="M532.541,1007.074l2.058,1.516,2.274.65,1.733-.866s1.949.975,3.141.433.108.325,1.191-.541l1.083-.866,1.408.108L549,1009.24l3.141,1.95,2.6,1.191,2.816,1.516.217,3.9-1.516,3.032a5.164,5.164,0,0,1,.325,2.816,6.025,6.025,0,0,1-.325,1.191,14.35,14.35,0,0,0,.65,1.949l.541,1.408,3.141,2.6,1.949,2.383s2.057,2.057,1.408,2.707-.65.758-.65.758l2.708,2.815a5.206,5.206,0,0,1,.433,2.491c-.108,1.408.975.325-.108,1.408l-1.083,1.083-2.382,1.516-2.058-.433-1.191-.866-1.516-1.408.325.866,1.083,1.841-1.733,2.382-2.382.108-.975-2.382-.975.65-2.274.216-1.949-2.274-.866-2.6,1.083-2.816-.108-2.166-.65-1.732s-1.841-.65-2.816-1.083l-.975-.433a4.742,4.742,0,0,1,2.166,2.708c.866,2.166.866,1.083.866,1.083l-1.949,7.256s.217-.65-2.058-2.058a22.015,22.015,0,0,0-2.383-1.408s1.083-.866-.217-2.816l-1.3-1.949a8.315,8.315,0,0,1,0-3.9l.542-1.841-.433-2.6-1.3-1.624-3.574-1.3s-.108.974.217-1.733l.325-2.708s-1.516-1.733-1.083-3.141-.867-.217.433-1.408l1.3-1.191.433-3.249-1.949-1.841Zm2.924,41.152-.542,2.6-.433,1.083.974,2.166,4.116,1.733,3.682-.866.758-.325-.975-2.166-1.3-1.408-2.058-1.3-1.949-.216Zm-14.62-47.434a13.066,13.066,0,0,1,.541,3.9c-.216,1.191-.325,1.083-.325,1.083l-.542,2.166-.433,1.3-.325,1.95-.541,2.274-.975,2.166s1.3,0,.65.867l-.65.866-.325,2.274,1.624.542-.433,1.733s1.191-.217.975,1.191a5.114,5.114,0,0,1-.325,1.516l-.433,2.924-1.083,2.491.433,2.166a5.519,5.519,0,0,1,.758,2.166l.325,1.625-1.949,1.733.216,2.165,3.574,3.9-.217,1.949-.866,3.032v3.141l3.14,1.408,4.007-1.408,3.466-.975-2.274-2.707s-1.733-1.625-1.408-2.708l.325-1.083,1.191-2.924a1.337,1.337,0,0,1,2.057,0l1.192,1.083-.217,1.841,2.383,1.733,1.949-.217,1.733-1.625-.433-3.465-2.274-4.115.758-3.791a2.325,2.325,0,0,1,.542-2.707l1.3-1.3a12.09,12.09,0,0,0-2.816-1.191h-.65l-1.3-3.14.758-2.924s-.866.65-1.083-1.083l-.217-1.733.542-2.058,1.408-3.248.108-1.3-1.841-1.516-1.408-.65-.867-1.408-.433-1.841.65-1.624-.866-1.624-2.6-2.708-1.624-.65H524.2Zm-13.1,23.392-3.032-.541s-1.3-.975-1.3-1.517v-.541l2.491-6.389,2.707-3.466,1.841-3.249,2.491,1.408-.433,3.032-1.083,5.848v3.466l.217,2.924-1.516.65Zm-14.592,31.962-.076-3.369a4.093,4.093,0,0,1,1.532-2.374l1.378-1.148,1.761-2.91-.153-2.144.919-1.072-.077-3.37-1.378-3.139-.459-2.221-1.608-4.212.383-1.455-.383-1,1.455-2.144,2.068-1.914,1.914-.306,2.833,2.144,1,1.455,1.685-.766,1.608-.383,1.608,1.838.383,1.3.842,1.991-.689,1.608-.612,2.3-1.149,1.378-1.761.153.306,2.144.689,1.149-.306,1.915-1.378.842,1.225,1.915.766,2.3-1.608,1.914-.766,1.838-.306,2.451-1.838,1.3-2.527.613-1.072,1.991-1.3,1.378-2.987-.766Zm-43.021-39.867-1.3,1.191-.975,2.436-2.112,3.466L444.28,1027l-.92,1.245-.6,2.545-.217,2.924-2.057,2.708L440,1038.1l-.921,2,.163,4.386,1.57,1.787,2.924,1.083,3.682,1.083,3.953-.758.975-1.57.758-.7.433-3.465-1.029-1.137.758-2.437.7-2.274.541-3.52-.054-4.278-.65-1.029.325-2.545.271-1.624-1.841-1.733-1.57-3.141Zm-5.964-55.254V957.7l-1.278-3.322,1.15-2.556,2.428-2.172,2.3-1.15.128-2.044-2.044-1.789-1.022-2.939V939.3l5.239-.511,4.6-4.728,2.3-.255,2.172-1.278.135-1.536,1.532.264,1.373-.792.053,1.056,1.743-.951.845.792v1.585l.951,1.321-.264,1.109h0l-.187.951-.711-.264-.317.951-1.056,1.109h1l-.159,1.426,1.162.529v1.585l.581-.106,1.215.158.475-.634,1.427.211,1.109-.845V939.5l.423-.581,1,.581.158,1.374,1.374.275,1.9.464,1.109-.845,1.585.317.053-.845s1.8-1.706,2.011-2.042l.208-.336L482.2,936.7l-.475-1.427.581-1.057-1.215-.9,1.426-.37.687.792,1.057-.264,2.166,1.056,1.056-.687-.423-1.057-1.532-.9,1.392-2.85v-4.223l.911.414,2.65,2.319H492.3l1.739,1.159.58-1.9,1.49-2.9L497.1,923l-.331-2.4.663-1.9.911-1.242,1.491,1.822,2.319.248.828,2.236,3.312,3.229-.745.745,2.275,2.884,1.783,3.327.248,2.567,2.9,1.242,1.408,2.65,1.822.828.249,3.146,1.077.745,2.567.663,2.319,3.064,1.9.663.994,2.567,2.07-.249,1.988-1.159,1.159,1.242-.414,2.9-.994,2.4.663.828-.5,1.656v2.4l1.739,2.236.662.414,2.07-.5.414-1.9,5.3,2.484,1.656.083,2.981-.745.1,1.265,2.214,1.716.662,2.236,4.14,3.809,3.478.414.5,4.638,4.72,3.975-1.8,2.165-.666,4.386.766,3.063,3.37,4.9,1.838,3.063-1.072,2.909-.613,5.054-3.369.613-2.451,1.378-.766,1.838-7.658-3.523-1.991-1.991-2.6-6.892-1.531-1.685,1.378,6.432.306,3.829-1.991,1.991-3.676-.306-2.144.154-3.063-3.676-4.135-4.288-3.063-.613-1.378-.307,1.991-2.3-1.072-3.369-1.072-2.757-3.676.307-1.838-2.6,3.063-2.6,1.072-2.6v-3.522l-1.838,2.757-.459,1.685-4.135,3.063-.766,2.45,2.45,2.6,3.063.459,1.072,4.441-3.369,3.982-2.45,2.91-4.135,1.378-2.144-1.225v-1.225l1.838-6.279,1.685-6.279-3.523-4.9,1.225-4.442,1.378-3.523,2.3-2.6-1.225-2.3-1.838,3.063-1.072,3.063-1.532,2.144-1.378,3.37,1.072,2.756.306,4.135,1.072,2.757-1.838,2.6-1.225,2.6-1.072,2.757.919,5.36.919,2.144-3.676,4.135-1.072,4.595-1.532,3.522-1.838-.306-1.838-3.216-2.451-1.991-2.3-2.757h-1.378l1.685,3.829V1020l1.838,2.757-1.685,2.144H489.7l.919,1.991-.613,5.054-.613,3.676-.306,1.684,1.379,3.829-.613,3.982-1.225,3.369-1.685-2.45-1.838-1.072v-2.144s-1.991.459-.919,1.685-.306-.306,1.072,1.225l1.378,1.532s-2.6-1.225-2.91,1.378l-.306,2.6-1.991-2.144-.306-4.135-.919-2.757,1.072-2.757,1.379-2.45-.153-1.838h-1.378l-1.532-2.144-1.838,1.225,1.378,1.378h1.838l1.072.766-1.685,1.991-2.451,1.225-2.757-2.3-1.685.307s-1.685.153,0,.153.459-2.91,1.685,0l1.225,2.91.306,3.369-.919,3.829-3.676,1.991-.459-4.748.919-3.369-.766-3.063-1.685.46,1.685,2.144v2.3l-1.531,1.531-.613,2.144-.306,2.3.306,1.991,2.144,1.532-.919,2.144-2.91,1.379-2.144-.153-1.378-1.072-.613-.459.459-2.3-1.072-1.991-1.991-1.072-1.532.307-1.531-3.369-1.685-5.514.153-2.3,1.532-2.45,1.838-4.441.459-3.216-1.225-3.369-1.685-3.676-2.91-3.982-.766-2.45.306-3.063.766-2.45-2.3-3.216v-1.991l1.991-2.144,3.829-6.126,1.225-5.054V985.85L458,981.1l-.306-2.6-2.757-2.756-2.6-1.685h-3.216l-3.369-1.072-4.288.153v-.459l1.225-2.91.459-3.523a5.367,5.367,0,0,0,1.02-5.22Zm-4.9,50.618.58-4.8,2.4-6.086L445.1,998.6l5.093-1.656-3.519,6.625-2.65,4.347-1.863,2.277Z" transform="translate(-439.081 -917.449)" fill="#a50f15" stroke="#fff" stroke-width="1"/>
    </g>
    <path id="Kolkata" d="M468.147,930.156l.951-1.532-1.162-.475,2.8-.74,1.426.9,2.377.106.793,1.109,1.373-.634,1.955.053,1.691-1.638.9-.845.581-2.113,1.321-2.324.317-.74.9-1.743-.951-1.743,2.43.053,1.585.9-.053,3.381,1.585,1.426.053,1.69,1.585,1.321.159,2.06,2.483,2.113.581,1.532,1.056-.264,1.532.9.423,1.057-1.057.687-.9-.528-1.268-.528-1.056.264-.687-.792-1.426.37,1.215.9-.581,1.056.476,1.427-1.321,1.162-1.162,1.426-1.057.951-.053.845-1.585-.317-1.109.845-2.113-.634-1.162-.106-.158-1.373-1-.581-.423.581v.951l-1.109.845-1.426-.211-.475.634-1.215-.159-.581.106v-1.585l-1.162-.528.159-1.427h-1l1.057-1.109.317-.951s.9.37.9-.158v-.529l.264-1.109-.951-1.321v-1.585l-.845-.792-.687.634-1.056.317-.053-1.056-1.374.792-1.532-.264-.634-.475Z" transform="translate(-140.349 -286.862)" fill="#a50f15" stroke="#fff" stroke-width="1"/>
  </g>
</svg>
