<svg xmlns="http://www.w3.org/2000/svg" width="24.754" height="22.861" viewBox="0 0 24.754 22.861">
  <path id="Challan_Created" data-name="Challan Created" d="M22.578,22.861H2.176a2.086,2.086,0,0,1-.848-.179A2.161,2.161,0,0,1,.636,22.2a2.274,2.274,0,0,1-.466-.723A2.359,2.359,0,0,1,0,20.585V2.276a2.359,2.359,0,0,1,.171-.887A2.271,2.271,0,0,1,.636.666,2.159,2.159,0,0,1,1.328.179,2.086,2.086,0,0,1,2.176,0h20.4a2.086,2.086,0,0,1,.848.179,2.159,2.159,0,0,1,.691.487,2.272,2.272,0,0,1,.466.723,2.359,2.359,0,0,1,.171.887V20.585a2.358,2.358,0,0,1-.171.887,2.272,2.272,0,0,1-.466.723,2.161,2.161,0,0,1-.691.487A2.086,2.086,0,0,1,22.578,22.861ZM11.247,19.408l2.276,2.382a.461.461,0,0,0,.351.157.484.484,0,0,0,.361-.157L15.65,20.31a.529.529,0,0,0,.15-.378.5.5,0,0,0-.15-.367l-2.276-2.382.562-.587a.537.537,0,0,0,.13-.514.518.518,0,0,0-.371-.367l-4.142-.923a.4.4,0,0,0-.1-.013.493.493,0,0,0-.35.16.545.545,0,0,0-.14.472l.882,4.333a.522.522,0,0,0,.351.388.454.454,0,0,0,.134.02A.5.5,0,0,0,10.686,20l.562-.587ZM2.119,11.129a1.032,1.032,0,0,0,0,2.061H22.7a1.032,1.032,0,0,0,0-2.061Zm0-4.079a1.032,1.032,0,0,0,0,2.061H22.7a1.032,1.032,0,0,0,0-2.061ZM9.427,3.033a.761.761,0,1,0,.725.76A.744.744,0,0,0,9.427,3.033Zm-2.9,0a.761.761,0,1,0,.725.76A.744.744,0,0,0,6.528,3.033Zm-2.9,0a.761.761,0,1,0,.727.76A.745.745,0,0,0,3.626,3.033Zm8.751,0a.735.735,0,0,0-.725.759.735.735,0,0,0,.725.759h8.751a.735.735,0,0,0,.725-.759.735.735,0,0,0-.725-.759Z" fill="#8287ff"/>
</svg>
