<svg id="Fines_Challan" data-name="Fines/Challan" xmlns="http://www.w3.org/2000/svg" width="19.829" height="25.665" viewBox="0 0 19.829 25.665">
  <g id="Group_10585" data-name="Group 10585" transform="translate(13.571 1.055)">
    <g id="Group_10584" data-name="Group 10584" transform="translate(0)">
      <path id="Path_11777" data-name="Path 11777" d="M234.5,15v4.866a.355.355,0,0,0,.373.338h4.859Z" transform="translate(-234.5 -15)" fill="#d473ec"/>
    </g>
  </g>
  <g id="Group_10587" data-name="Group 10587" transform="translate(13.571 1.055)">
    <g id="Group_10586" data-name="Group 10586">
      <path id="Path_11778" data-name="Path 11778" d="M234.5,15Z" transform="translate(-234.5 -15)" fill="#d473ec"/>
    </g>
  </g>
  <g id="Group_10589" data-name="Group 10589" transform="translate(0)">
    <g id="Group_10588" data-name="Group 10588">
      <path id="Path_11779" data-name="Path 11779" d="M55.443,7.664h-.028a1.766,1.766,0,0,1-1.751-1.779V0h-10.7A1.483,1.483,0,0,0,41.5,1.491V24.217a1.45,1.45,0,0,0,1.484,1.449H59.845a1.45,1.45,0,0,0,1.484-1.449V7.664Zm-2.2,5.843H54.2a.7.7,0,0,1,0,1.406h-.977a3.135,3.135,0,0,1-.83,1.526,3.1,3.1,0,0,1-2.039.935l2.735,2.581a.7.7,0,0,1-.963,1.02l-4.015-3.8a.706.706,0,0,1,.485-1.216h1.6a1.711,1.711,0,0,0,1.209-.527,1.478,1.478,0,0,0,.352-.527H48.594a.7.7,0,1,1,0-1.406h3.164a1.746,1.746,0,0,0-1.554-.984H48.6a.7.7,0,0,1,0-1.406H54.22a.707.707,0,0,1,0,1.413H52.813A2.935,2.935,0,0,1,53.242,13.508Z" transform="translate(-41.499)" fill="#d473ec"/>
    </g>
  </g>
</svg>
