<svg xmlns="http://www.w3.org/2000/svg" width="25.053" height="27.961" viewBox="0 0 25.053 27.961">
  <path id="Monthly_Lifting" data-name="Monthly Lifting" d="M17.523,26.544a1.44,1.44,0,0,1,.155-.651H7.391a1.44,1.44,0,0,1,.155.651,1.383,1.383,0,1,1-2.764,0,1.434,1.434,0,0,1,.189-.714.982.982,0,0,1-.225-.123L3.212,24.566a.991.991,0,0,1-.4-.8v-.139a.969.969,0,0,1,.959-.982H21.349a.971.971,0,0,1,.96.982.991.991,0,0,1-.434.823L20.015,25.7a1.431,1.431,0,0,1,.273.845,1.383,1.383,0,1,1-2.764,0ZM5.772,21.731a2.278,2.278,0,0,1-2.254-1.574L.591,9.287H.423a.376.376,0,1,1,0-.747H24.631a.376.376,0,1,1,0,.747h-.416L21.693,20.1a2.268,2.268,0,0,1-2.269,1.635ZM.882,7.539S8.832.148,12.928,0,24.494,7.539,24.494,7.539Z" fill="#42a2fa"/>
</svg>
