<svg xmlns="http://www.w3.org/2000/svg" width="24.865" height="24.865" viewBox="0 0 24.865 24.865">
  <path id="Own_Vehicle_Registered" data-name="Own Vehicle Registered" d="M6.651,1A3.408,3.408,0,0,0,3.26,4.391v1.7a.565.565,0,0,1-.565.565H2.13A1.13,1.13,0,0,0,1,7.781V12.3a1.13,1.13,0,0,0,1.13,1.13H2.7A.565.565,0,0,1,3.26,14V23.6a2.26,2.26,0,0,0,4.521,0v-.565a.565.565,0,0,1,.565-.565H18.518a.565.565,0,0,1,.565.565V23.6a2.26,2.26,0,0,0,4.521,0V14a.565.565,0,0,1,.565-.565h.565a1.13,1.13,0,0,0,1.13-1.13V7.781a1.13,1.13,0,0,0-1.13-1.13h-.565a.565.565,0,0,1-.565-.565v-1.7A3.408,3.408,0,0,0,20.214,1ZM6.086,6.651h5.651a.564.564,0,0,1,.565.565v5.651a.564.564,0,0,1-.565.565H6.086a.564.564,0,0,1-.565-.565V7.216A.564.564,0,0,1,6.086,6.651Zm9.042,0h5.651a.564.564,0,0,1,.565.565v5.651a.564.564,0,0,1-.565.565H15.128a.564.564,0,0,1-.565-.565V7.216A.564.564,0,0,1,15.128,6.651ZM6.086,15.693H9.477a.564.564,0,0,1,.565.565v1.13a.564.564,0,0,1-.565.565H6.086a.564.564,0,0,1-.565-.565v-1.13A.564.564,0,0,1,6.086,15.693Zm11.3,0h3.391a.564.564,0,0,1,.565.565v1.13a.564.564,0,0,1-.565.565H17.388a.564.564,0,0,1-.565-.565v-1.13A.564.564,0,0,1,17.388,15.693Z" transform="translate(-1 -1)" fill="#feb161"/>
</svg>
